<svg xmlns="http://www.w3.org/2000/svg" xmlns:xlink="http://www.w3.org/1999/xlink" width="500" zoomAndPan="magnify" viewBox="0 0 375 374.999991" height="500" preserveAspectRatio="xMidYMid meet" version="1.0"><defs><clipPath id="cca7a9a680"><path d="M 121.839844 105.878906 L 253.089844 105.878906 L 253.089844 237.128906 L 121.839844 237.128906 Z M 121.839844 105.878906 " clip-rule="nonzero"/></clipPath><clipPath id="2f130805d7"><path d="M 187.496094 105.878906 C 151.234375 105.878906 121.839844 135.273438 121.839844 171.535156 C 121.839844 207.792969 151.234375 237.1875 187.496094 237.1875 C 223.753906 237.1875 253.148438 207.792969 253.148438 171.535156 C 253.148438 135.273438 223.753906 105.878906 187.496094 105.878906 Z M 187.496094 105.878906 " clip-rule="nonzero"/></clipPath><clipPath id="b9ad750c1f"><path d="M 191 175 L 244 175 L 244 228.128906 L 191 228.128906 Z M 191 175 " clip-rule="nonzero"/></clipPath><clipPath id="b6d63faec5"><path d="M 132 175 L 185 175 L 185 228.128906 L 132 228.128906 Z M 132 175 " clip-rule="nonzero"/></clipPath><clipPath id="5b8a96dc54"><path d="M 168 167 L 207 167 L 207 186.90625 L 168 186.90625 Z M 168 167 " clip-rule="nonzero"/></clipPath><clipPath id="0b87fe5c15"><path d="M 141.015625 124.65625 L 234.015625 124.65625 L 234.015625 181 L 141.015625 181 Z M 141.015625 124.65625 " clip-rule="nonzero"/></clipPath></defs><g clip-path="url(#cca7a9a680)"><g clip-path="url(#2f130805d7)"><path stroke-linecap="butt" transform="matrix(0.75, 0, 0, 0.75, 121.841341, 105.879691)" fill="none" stroke-linejoin="miter" d="M 87.539676 -0.00104693 C 39.190714 -0.00104693 -0.00199673 39.191664 -0.00199673 87.540625 C -0.00199673 135.884379 39.190714 175.07709 87.539676 175.07709 C 135.883429 175.07709 175.07614 135.884379 175.07614 87.540625 C 175.07614 39.191664 135.883429 -0.00104693 87.539676 -0.00104693 Z M 87.539676 -0.00104693 " stroke="#f6911f" stroke-width="10" stroke-opacity="1" stroke-miterlimit="4"/></g></g><path fill="#009247" d="M 243.710938 171.046875 C 242.914062 132.476562 203.6875 105.945312 167.113281 120.726562 C 145.257812 129.539062 131.144531 150.933594 132.230469 174.527344 C 131.160156 173.457031 136.8125 187.714844 149.023438 196.640625 C 153.78125 200.085938 159.273438 202.738281 165.851562 207.207031 C 165.339844 204.125 165.117188 199.878906 166.425781 197.023438 C 165.59375 199.910156 166.25 203.390625 167.046875 206.3125 C 168.117188 210.015625 166.824219 207.191406 174.855469 214.121094 C 178.636719 217.359375 182.117188 220.875 185.375 224.546875 C 183.683594 214.679688 179.914062 204.414062 171.804688 198.410156 C 162.609375 191.609375 140.195312 189.246094 138.648438 175.644531 C 134.398438 138.335938 171.519531 108.863281 207.390625 124.128906 C 227.523438 132.714844 239.816406 153.660156 237.246094 175.660156 C 235.664062 189.246094 213.328125 191.5625 204.101562 198.378906 C 195.992188 204.382812 192.238281 214.597656 190.53125 224.511719 C 193.820312 220.792969 197.253906 217.359375 201.035156 214.089844 C 209.066406 207.191406 207.773438 209.96875 208.84375 206.28125 C 209.640625 203.34375 210.28125 199.910156 209.464844 196.988281 C 210.757812 199.816406 210.550781 204.140625 210.039062 207.175781 C 220.019531 200.390625 227.089844 198.074219 234.433594 189.742188 C 237.46875 186.324219 243.375 177.496094 243.679688 174.480469 C 243.679688 174.511719 243.789062 174.367188 243.710938 171.046875 Z M 243.710938 171.046875 " fill-opacity="1" fill-rule="nonzero"/><g clip-path="url(#b9ad750c1f)"><path fill="#009247" d="M 227.664062 197.691406 C 221.632812 202.464844 221.359375 200.996094 225.878906 200.996094 C 227.9375 200.996094 230.0625 201.238281 231.929688 202.128906 C 228.765625 200.886719 224.585938 201.394531 221.28125 202.195312 C 215.515625 205.960938 209.417969 209.839844 202.824219 216.066406 C 206.910156 215.414062 211.109375 215.429688 214.734375 217.441406 C 209.945312 215.699219 203.972656 217.167969 199.425781 219.421875 C 196.679688 222.246094 194.125 225.230469 191.714844 228.328125 C 218.851562 225.550781 241.234375 202.914062 243.597656 175.675781 C 243.597656 174.242188 240.742188 187.300781 227.664062 197.691406 Z M 227.664062 197.691406 " fill-opacity="1" fill-rule="nonzero"/></g><g clip-path="url(#b6d63faec5)"><path fill="#009247" d="M 161.171875 217.457031 C 164.796875 215.445312 168.996094 215.429688 173.082031 216.082031 C 166.28125 209.648438 159.800781 205.59375 154.628906 202.210938 C 151.308594 201.414062 147.140625 200.902344 143.980469 202.148438 C 145.847656 201.253906 147.953125 201.011719 150.03125 201.011719 C 154.53125 200.996094 154.261719 202.464844 148.242188 197.707031 C 140.851562 191.816406 135.613281 184.171875 132.308594 175.613281 C 135.132812 204.429688 158.1875 225.664062 184.195312 228.328125 C 181.785156 225.230469 179.214844 222.246094 176.484375 219.421875 C 171.933594 217.183594 165.996094 215.699219 161.171875 217.457031 Z M 161.171875 217.457031 " fill-opacity="1" fill-rule="nonzero"/></g><path fill="#f6911f" d="M 209.644531 165.929688 C 209.417969 164.941406 209.148438 163.960938 208.785156 163.011719 C 208.621094 162.53125 208.40625 162.070312 208.214844 161.601562 C 208.109375 161.367188 207.996094 161.140625 207.886719 160.914062 L 207.71875 160.570312 C 207.660156 160.457031 207.597656 160.347656 207.539062 160.234375 C 205.632812 156.632812 202.707031 153.574219 199.203125 151.464844 L 198.542969 151.074219 L 197.863281 150.71875 C 197.75 150.660156 197.640625 150.597656 197.523438 150.542969 L 197.175781 150.378906 C 196.945312 150.273438 196.710938 150.164062 196.476562 150.058594 C 196 149.875 195.535156 149.664062 195.046875 149.507812 C 194.804688 149.425781 194.5625 149.335938 194.320312 149.261719 L 193.582031 149.046875 C 193.335938 148.96875 193.085938 148.910156 192.839844 148.851562 C 192.589844 148.796875 192.339844 148.734375 192.089844 148.683594 C 191.585938 148.597656 191.082031 148.488281 190.574219 148.433594 C 189.5625 148.28125 188.535156 148.238281 187.515625 148.21875 C 186.492188 148.238281 185.46875 148.28125 184.453125 148.433594 C 183.945312 148.488281 183.441406 148.59375 182.9375 148.683594 C 182.6875 148.730469 182.441406 148.796875 182.191406 148.851562 C 181.941406 148.910156 181.691406 148.964844 181.445312 149.042969 L 180.707031 149.257812 C 180.464844 149.332031 180.222656 149.421875 179.980469 149.503906 C 179.496094 149.664062 179.027344 149.871094 178.550781 150.058594 C 178.316406 150.160156 178.085938 150.273438 177.851562 150.378906 L 177.503906 150.539062 C 177.386719 150.597656 177.277344 150.65625 177.164062 150.714844 L 176.480469 151.070312 L 175.820312 151.460938 C 172.320312 153.574219 169.390625 156.628906 167.488281 160.234375 C 167.429688 160.34375 167.363281 160.453125 167.308594 160.566406 L 167.140625 160.910156 C 167.03125 161.140625 166.917969 161.367188 166.8125 161.597656 C 166.617188 162.070312 166.40625 162.53125 166.242188 163.011719 C 165.875 163.960938 165.605469 164.941406 165.378906 165.925781 C 164.957031 167.90625 164.769531 169.933594 164.878906 171.9375 C 164.992188 173.941406 165.351562 175.929688 165.992188 177.8125 C 166.308594 178.753906 166.691406 179.671875 167.128906 180.558594 C 167.578125 181.4375 168.074219 182.289062 168.636719 183.09375 C 166.808594 179.625 165.863281 175.753906 165.953125 171.917969 C 165.976562 170.003906 166.265625 168.105469 166.773438 166.277344 C 167.046875 165.371094 167.335938 164.46875 167.71875 163.605469 C 167.890625 163.164062 168.113281 162.746094 168.3125 162.320312 C 168.417969 162.109375 168.535156 161.90625 168.644531 161.695312 L 168.8125 161.386719 C 168.867188 161.28125 168.929688 161.183594 168.992188 161.082031 C 170.890625 157.832031 173.648438 155.121094 176.875 153.265625 L 177.480469 152.921875 L 178.105469 152.609375 C 178.210938 152.554688 178.3125 152.5 178.417969 152.453125 L 178.734375 152.308594 C 178.949219 152.21875 179.160156 152.117188 179.371094 152.027344 C 179.808594 151.867188 180.234375 151.679688 180.679688 151.542969 C 180.898438 151.472656 181.117188 151.394531 181.339844 151.328125 L 182.011719 151.144531 C 182.234375 151.078125 182.460938 151.027344 182.6875 150.976562 C 182.914062 150.925781 183.136719 150.867188 183.363281 150.824219 C 183.824219 150.75 184.277344 150.648438 184.738281 150.601562 C 185.65625 150.46875 186.585938 150.4375 187.515625 150.421875 C 188.441406 150.4375 189.371094 150.46875 190.289062 150.601562 C 190.75 150.648438 191.207031 150.746094 191.664062 150.824219 C 191.890625 150.867188 192.117188 150.925781 192.34375 150.976562 C 192.566406 151.027344 192.796875 151.074219 193.015625 151.140625 L 193.6875 151.328125 C 193.910156 151.394531 194.128906 151.472656 194.351562 151.542969 C 194.792969 151.679688 195.222656 151.863281 195.65625 152.027344 C 195.871094 152.117188 196.082031 152.214844 196.292969 152.308594 L 196.613281 152.449219 C 196.71875 152.5 196.820312 152.554688 196.921875 152.605469 L 197.546875 152.921875 L 198.15625 153.261719 C 201.382812 155.121094 204.140625 157.828125 206.039062 161.082031 C 206.097656 161.179688 206.164062 161.28125 206.21875 161.382812 L 206.386719 161.695312 C 206.496094 161.902344 206.613281 162.109375 206.71875 162.316406 C 206.917969 162.746094 207.140625 163.164062 207.3125 163.601562 C 207.695312 164.46875 207.988281 165.371094 208.257812 166.277344 C 208.765625 168.105469 209.054688 170.003906 209.078125 171.921875 C 209.167969 175.753906 208.222656 179.625 206.390625 183.09375 C 206.953125 182.289062 207.449219 181.4375 207.898438 180.558594 C 208.335938 179.671875 208.714844 178.753906 209.035156 177.8125 C 209.675781 175.929688 210.035156 173.941406 210.148438 171.9375 C 210.257812 169.933594 210.066406 167.90625 209.644531 165.929688 " fill-opacity="1" fill-rule="nonzero"/><path fill="#8cc63f" d="M 190.179688 175.96875 C 202.796875 179.421875 203.171875 165.121094 203.171875 165.121094 C 203.171875 165.121094 202.425781 166.535156 195.597656 166.742188 C 191.757812 166.859375 189.972656 168.871094 189.148438 170.605469 C 188.667969 171.613281 188.441406 172.726562 188.441406 173.84375 L 188.515625 178.847656 C 189.136719 174.121094 193.609375 169.722656 197.84375 169.128906 C 198.203125 169.078125 198.414062 169.070312 198.414062 169.070312 C 191.570312 170.453125 190.179688 175.96875 190.179688 175.96875 " fill-opacity="1" fill-rule="nonzero"/><path fill="#8cc63f" d="M 187.367188 170.78125 C 187.367188 170.78125 188.332031 165.570312 184.542969 162.152344 C 184.542969 162.152344 188.8125 165.058594 188.082031 170.78125 C 188.082031 170.78125 192.816406 164.953125 187.367188 161.601562 C 181.914062 158.253906 182.234375 156.785156 182.234375 156.785156 C 182.234375 156.785156 178.339844 167.523438 187.367188 170.78125 " fill-opacity="1" fill-rule="nonzero"/><g clip-path="url(#5b8a96dc54)"><path fill="#009247" d="M 188.117188 180.183594 L 188.117188 176.644531 C 188.117188 175.414062 187.867188 174.1875 187.335938 173.074219 C 186.425781 171.15625 184.457031 168.9375 180.214844 168.808594 C 172.679688 168.578125 171.859375 167.015625 171.859375 167.015625 C 171.859375 167.015625 172.269531 182.804688 186.199219 178.996094 C 186.199219 178.996094 184.660156 172.90625 177.109375 171.375 C 177.109375 171.375 177.339844 171.386719 177.734375 171.445312 C 182.457031 172.105469 186.136719 175.671875 187.152344 180.179688 C 179.09375 180.257812 172.121094 182.964844 168.613281 186.90625 L 206.417969 186.90625 C 202.941406 183.003906 196.074219 180.3125 188.117188 180.183594 " fill-opacity="1" fill-rule="nonzero"/></g><g clip-path="url(#0b87fe5c15)"><path fill="#f6911f" d="M 234.011719 171.125 L 213.207031 168.410156 L 232.996094 161.410156 L 212.082031 163.101562 L 229.992188 152.121094 L 209.886719 158.148438 L 225.132812 143.664062 L 206.710938 153.757812 L 218.628906 136.40625 L 202.699219 150.125 L 210.765625 130.664062 L 198.019531 147.414062 L 201.882812 126.691406 L 192.886719 145.738281 L 192.375 124.660156 L 187.515625 145.167969 L 182.652344 124.660156 L 182.144531 145.738281 L 173.144531 126.691406 L 177.007812 147.414062 L 164.265625 130.664062 L 172.332031 150.125 L 156.398438 136.40625 L 168.316406 153.757812 L 149.894531 143.664062 L 165.140625 158.148438 L 145.035156 152.121094 L 162.945312 163.101562 L 142.03125 161.410156 L 161.824219 168.410156 L 141.015625 171.125 L 161.824219 173.835938 L 142.03125 180.835938 L 162.945312 179.144531 L 165.058594 179.144531 C 164.171875 176.636719 163.6875 173.9375 163.6875 171.125 C 163.6875 157.902344 174.355469 147.183594 187.515625 147.183594 C 200.671875 147.183594 211.339844 157.902344 211.339844 171.125 C 211.339844 173.9375 210.855469 176.636719 209.96875 179.144531 L 212.082031 179.144531 L 232.996094 180.835938 L 213.207031 173.835938 L 234.011719 171.125 " fill-opacity="1" fill-rule="nonzero"/></g></svg>