<svg xmlns="http://www.w3.org/2000/svg" xmlns:xlink="http://www.w3.org/1999/xlink" width="500" zoomAndPan="magnify" viewBox="0 0 375 374.999991" height="500" preserveAspectRatio="xMidYMid meet" version="1.0"><defs><g/><clipPath id="e3284b894c"><path d="M 130.289062 113.457031 L 245 113.457031 L 245 221.457031 L 130.289062 221.457031 Z M 130.289062 113.457031 " clip-rule="nonzero"/></clipPath><clipPath id="1b7d1ecb26"><path d="M 189 100.789062 L 219.75 100.789062 L 219.75 130 L 189 130 Z M 189 100.789062 " clip-rule="nonzero"/></clipPath><clipPath id="8e0e1ce227"><path d="M 189 100.789062 L 200 100.789062 L 200 127 L 189 127 Z M 189 100.789062 " clip-rule="nonzero"/></clipPath><clipPath id="049fa7d116"><path d="M 188 100.789062 L 197 100.789062 L 197 127 L 188 127 Z M 188 100.789062 " clip-rule="nonzero"/></clipPath><clipPath id="d05828f3c6"><path d="M 196 109 L 219.75 109 L 219.75 128 L 196 128 Z M 196 109 " clip-rule="nonzero"/></clipPath></defs><rect x="-37.5" width="450" fill="#ffffff" y="-37.499999" height="449.999989" fill-opacity="1"/><rect x="-37.5" width="450" fill="#102a39" y="-37.499999" height="449.999989" fill-opacity="1"/><g clip-path="url(#e3284b894c)"><path fill="#1b7eb6" d="M 137.933594 213.902344 L 145.460938 213.902344 L 145.460938 221.546875 C 140.410156 221.546875 135.34375 221.546875 130.289062 221.546875 L 130.289062 177.734375 C 149.308594 167.015625 168.339844 156.292969 187.359375 145.570312 L 192.375 151.507812 L 158.121094 170.824219 L 158.121094 213.902344 L 237.054688 213.902344 L 237.054688 165.449219 L 214.703125 138.925781 L 203.558594 145.210938 L 224.511719 170.054688 L 224.511719 208.886719 L 216.871094 208.886719 L 216.871094 172.824219 L 175.0625 123.21875 L 158.121094 132.773438 L 158.121094 156.304688 L 150.476562 160.613281 L 150.476562 128.308594 L 176.804688 113.46875 L 198.542969 139.261719 L 216.433594 129.179688 L 244.699219 162.589844 L 244.699219 221.546875 C 237.964844 221.546875 231.246094 221.546875 224.511719 221.546875 L 224.511719 241.71875 L 150.476562 241.71875 L 150.476562 175.132812 L 137.945312 182.199219 L 137.945312 213.902344 Z M 158.121094 221.546875 L 158.121094 234.101562 L 216.871094 234.101562 L 216.871094 221.546875 Z M 158.121094 221.546875 " fill-opacity="1" fill-rule="nonzero"/></g><path fill="#1b7eb6" d="M 177.78125 179.351562 L 185.398438 179.351562 L 185.398438 186.96875 L 177.78125 186.96875 Z M 189.589844 191.164062 L 197.210938 191.164062 L 197.210938 198.78125 L 189.589844 198.78125 Z M 189.589844 179.351562 L 197.210938 179.351562 L 197.210938 186.96875 L 189.589844 186.96875 Z M 177.78125 191.164062 L 185.398438 191.164062 L 185.398438 198.78125 L 177.78125 198.78125 Z M 177.78125 191.164062 " fill-opacity="1" fill-rule="evenodd"/><g clip-path="url(#1b7d1ecb26)"><path fill="#8eb61b" d="M 201.066406 129.550781 C 200.863281 129.511719 200.125 129.425781 199.425781 129.363281 C 198.460938 129.269531 198.195312 129.183594 198.304688 129 C 198.585938 128.515625 201.972656 125.027344 203.5625 123.582031 C 205.847656 121.511719 208.75 119.488281 211.371094 118.148438 C 212.171875 117.738281 212.234375 117.667969 211.8125 117.664062 C 211.007812 117.65625 208.503906 118.566406 206.554688 119.578125 C 203.992188 120.910156 201.1875 123.082031 198.753906 125.632812 L 196.664062 127.820312 L 196.664062 126.625 C 196.667969 124.125 197.386719 121.386719 198.570312 119.382812 C 199.558594 117.707031 201.574219 115.804688 203.3125 114.910156 C 205.855469 113.601562 208.96875 113.335938 211.726562 112.335938 C 214.402344 111.363281 218.441406 110.269531 219.597656 109.003906 C 219.828125 108.753906 219.433594 115.917969 218.835938 117.855469 C 216.945312 124.019531 212.800781 127.957031 206.941406 129.15625 C 205.585938 129.433594 201.800781 129.6875 201.066406 129.550781 Z M 194.296875 125.863281 C 192.234375 123.726562 190.496094 120.722656 189.609375 117.753906 C 189.148438 116.214844 189.101562 115.785156 189.09375 112.882812 C 189.089844 110.132812 189.148438 109.46875 189.523438 108.027344 C 190.035156 106.078125 191.03125 104.71875 191.375 102.949219 C 191.511719 102.253906 191.453125 100.820312 191.453125 100.820312 L 193.386719 102.699219 C 196.296875 105.527344 199.984375 106.929688 201.777344 109.445312 C 202.59375 110.585938 203.785156 112.898438 203.785156 113.335938 C 203.785156 113.4375 203.089844 113.878906 202.238281 114.320312 C 201.386719 114.761719 200.242188 115.492188 199.695312 115.9375 C 199.144531 116.386719 198.675781 116.722656 198.652344 116.691406 C 198.632812 116.65625 198.300781 115.910156 197.914062 115.035156 C 197.207031 113.414062 195.253906 110.347656 194.851562 110.214844 C 194.726562 110.175781 194.960938 110.960938 195.371094 111.964844 C 195.78125 112.96875 196.40625 114.785156 196.757812 115.996094 L 197.398438 118.203125 L 196.867188 119.382812 C 196.28125 120.671875 195.429688 123.863281 195.210938 125.582031 L 195.074219 126.667969 Z M 194.296875 125.863281 " fill-opacity="1" fill-rule="nonzero"/></g><g clip-path="url(#8e0e1ce227)"><path fill="#8eb61b" d="M 194.296875 125.863281 C 192.234375 123.726562 190.496094 120.722656 189.609375 117.753906 C 189.148438 116.214844 189.101562 115.785156 189.09375 112.882812 C 189.089844 110.132812 189.148438 109.46875 189.523438 108.027344 C 190.035156 106.078125 191.03125 104.71875 191.375 102.949219 C 191.511719 102.253906 191.453125 100.820312 191.453125 100.820312 L 193.386719 102.699219 C 194.542969 103.820312 195.816406 104.71875 197.050781 105.550781 C 199.675781 108.011719 197.074219 110.972656 199.695312 115.9375 C 199.144531 116.386719 198.675781 116.722656 198.652344 116.691406 C 198.632812 116.65625 198.300781 115.910156 197.914062 115.035156 C 197.207031 113.414062 195.253906 110.347656 194.851562 110.214844 C 194.726562 110.175781 194.960938 110.960938 195.371094 111.964844 C 195.78125 112.96875 196.40625 114.785156 196.757812 115.996094 L 197.398438 118.203125 L 196.867188 119.382812 C 196.28125 120.671875 195.429688 123.863281 195.210938 125.582031 L 195.074219 126.667969 Z M 194.296875 125.863281 " fill-opacity="1" fill-rule="nonzero"/></g><g clip-path="url(#049fa7d116)"><path fill="#8eb61b" d="M 194.296875 125.863281 C 192.234375 123.726562 190.496094 120.722656 189.609375 117.753906 C 188.621094 114.511719 188.71875 111.144531 189.523438 108.027344 C 190.035156 106.078125 191.03125 104.71875 191.375 102.949219 C 191.511719 102.253906 191.453125 100.820312 191.453125 100.820312 C 193.667969 108.808594 187.496094 110.460938 196.105469 121.585938 C 195.390625 124.429688 195.332031 124.597656 195.210938 125.582031 L 195.074219 126.667969 Z M 194.296875 125.863281 " fill-opacity="1" fill-rule="nonzero"/></g><g clip-path="url(#d05828f3c6)"><path fill="#8eb61b" d="M 198.753906 125.632812 L 196.664062 127.820312 L 196.664062 126.625 C 196.667969 124.125 197.386719 121.386719 198.570312 119.382812 C 199.558594 117.707031 201.574219 115.804688 203.3125 114.910156 C 205.855469 113.601562 208.96875 113.335938 211.726562 112.335938 C 214.402344 111.363281 218.441406 110.269531 219.597656 109.003906 C 217.039062 119.261719 202.394531 112.894531 198.753906 125.632812 Z M 198.753906 125.632812 " fill-opacity="1" fill-rule="nonzero"/></g><g fill="#ffffff" fill-opacity="1"><g transform="translate(74.1527, 245.787874)"><g><path d="M 6.734375 -6.984375 C 6.722656 -7.523438 6.671875 -7.96875 6.578125 -8.3125 C 6.492188 -8.65625 6.363281 -8.925781 6.1875 -9.125 C 6.019531 -9.320312 5.800781 -9.457031 5.53125 -9.53125 C 5.257812 -9.601562 4.925781 -9.640625 4.53125 -9.640625 C 4.207031 -9.640625 3.851562 -9.585938 3.46875 -9.484375 C 3.082031 -9.378906 2.71875 -9.234375 2.375 -9.046875 C 2.039062 -8.859375 1.757812 -8.640625 1.53125 -8.390625 C 1.3125 -8.140625 1.203125 -7.867188 1.203125 -7.578125 C 1.203125 -7.203125 1.378906 -6.914062 1.734375 -6.71875 C 2.097656 -6.53125 2.644531 -6.4375 3.375 -6.4375 C 3.832031 -6.4375 4.328125 -6.46875 4.859375 -6.53125 C 5.398438 -6.601562 5.988281 -6.703125 6.625 -6.828125 Z M 6.796875 -17.1875 C 6.671875 -16.726562 6.550781 -16.335938 6.4375 -16.015625 C 6.320312 -15.691406 6.222656 -15.421875 6.140625 -15.203125 L 5.328125 -15.21875 C 5.390625 -15.375 5.421875 -15.515625 5.421875 -15.640625 C 5.421875 -15.804688 5.363281 -15.945312 5.25 -16.0625 C 5.132812 -16.1875 4.941406 -16.25 4.671875 -16.25 L 0.65625 -16.25 C 0.707031 -16.46875 0.757812 -16.675781 0.8125 -16.875 C 0.863281 -17.070312 0.914062 -17.265625 0.96875 -17.453125 C 1.03125 -17.640625 1.085938 -17.828125 1.140625 -18.015625 C 1.203125 -18.210938 1.257812 -18.414062 1.3125 -18.625 L 5.8125 -18.625 C 6.25 -18.625 6.539062 -18.566406 6.6875 -18.453125 C 6.84375 -18.335938 6.921875 -18.171875 6.921875 -17.953125 C 6.921875 -17.847656 6.910156 -17.734375 6.890625 -17.609375 C 6.867188 -17.484375 6.835938 -17.34375 6.796875 -17.1875 Z M 11 -1.65625 L 9.484375 -1.65625 C 8.742188 -1.65625 8.179688 -1.890625 7.796875 -2.359375 C 7.410156 -2.835938 7.191406 -3.523438 7.140625 -4.421875 L 7.03125 -4.421875 C 6.9375 -4.421875 6.820312 -4.40625 6.6875 -4.375 C 6.5625 -4.351562 6.421875 -4.320312 6.265625 -4.28125 C 6.117188 -4.238281 5.972656 -4.195312 5.828125 -4.15625 C 5.679688 -4.113281 5.554688 -4.070312 5.453125 -4.03125 C 5.117188 -3.96875 4.71875 -3.914062 4.25 -3.875 C 3.78125 -3.84375 3.332031 -3.828125 2.90625 -3.828125 C 1.90625 -3.828125 1.171875 -4.03125 0.703125 -4.4375 C 0.234375 -4.84375 0 -5.457031 0 -6.28125 C 0 -7.644531 0.554688 -8.953125 1.671875 -10.203125 C 2.265625 -10.878906 2.882812 -11.378906 3.53125 -11.703125 C 4.1875 -12.023438 4.90625 -12.1875 5.6875 -12.1875 C 6.21875 -12.1875 6.644531 -12.097656 6.96875 -11.921875 C 7.289062 -11.742188 7.539062 -11.472656 7.71875 -11.109375 L 7.71875 -11.125 C 7.875 -10.882812 7.992188 -10.40625 8.078125 -9.6875 C 8.171875 -8.976562 8.21875 -8.023438 8.21875 -6.828125 C 8.21875 -5.960938 8.347656 -5.3125 8.609375 -4.875 C 8.867188 -4.4375 9.253906 -4.21875 9.765625 -4.21875 L 11 -4.21875 Z M 11 -1.65625 "/></g></g></g><g fill="#ffffff" fill-opacity="1"><g transform="translate(84.793324, 245.787874)"><g><path d="M 8.609375 -1.65625 L 6.734375 -1.65625 C 6.453125 -1.65625 6.238281 -1.71875 6.09375 -1.84375 C 5.957031 -1.976562 5.851562 -2.117188 5.78125 -2.265625 C 5.707031 -2.421875 5.644531 -2.5625 5.59375 -2.6875 C 5.550781 -2.820312 5.492188 -2.890625 5.421875 -2.890625 C 5.367188 -2.890625 5.320312 -2.875 5.28125 -2.84375 C 5.25 -2.8125 5.207031 -2.765625 5.15625 -2.703125 C 5.113281 -2.640625 5.050781 -2.5625 4.96875 -2.46875 C 4.894531 -2.382812 4.796875 -2.28125 4.671875 -2.15625 C 4.515625 -2 4.34375 -1.875 4.15625 -1.78125 C 3.96875 -1.695312 3.757812 -1.65625 3.53125 -1.65625 L -0.390625 -1.65625 L -0.390625 -4.21875 L 3.9375 -4.21875 C 4.34375 -4.21875 4.660156 -4.351562 4.890625 -4.625 C 5.117188 -4.90625 5.234375 -5.304688 5.234375 -5.828125 C 5.234375 -6.066406 5.257812 -6.238281 5.3125 -6.34375 C 5.363281 -6.445312 5.445312 -6.5 5.5625 -6.5 C 5.6875 -6.5 5.769531 -6.441406 5.8125 -6.328125 C 5.863281 -6.222656 5.890625 -6.03125 5.890625 -5.75 C 5.890625 -5.257812 6.003906 -4.878906 6.234375 -4.609375 C 6.460938 -4.347656 6.800781 -4.21875 7.25 -4.21875 L 8.609375 -4.21875 Z M 5 2.484375 C 4.9375 2.722656 4.875 2.953125 4.8125 3.171875 C 4.75 3.390625 4.6875 3.585938 4.625 3.765625 C 4.570312 3.941406 4.523438 4.082031 4.484375 4.1875 C 4.453125 4.300781 4.4375 4.363281 4.4375 4.375 L 4.4375 4.40625 C 4.4375 4.425781 4.4375 4.441406 4.4375 4.453125 L 3.53125 4.453125 C 3.601562 4.285156 3.640625 4.140625 3.640625 4.015625 C 3.640625 3.835938 3.578125 3.691406 3.453125 3.578125 C 3.328125 3.460938 3.140625 3.40625 2.890625 3.40625 L -1.0625 3.40625 C -0.9375 3.007812 -0.832031 2.617188 -0.75 2.234375 C -0.675781 1.847656 -0.578125 1.488281 -0.453125 1.15625 L 4.0625 1.15625 C 4.5 1.15625 4.796875 1.195312 4.953125 1.28125 C 5.109375 1.363281 5.1875 1.5 5.1875 1.6875 C 5.1875 1.789062 5.164062 1.90625 5.125 2.03125 C 5.09375 2.164062 5.050781 2.316406 5 2.484375 Z M 5 2.484375 "/></g></g></g><g fill="#ffffff" fill-opacity="1"><g transform="translate(93.019886, 245.787874)"><g><path d="M 10.828125 -4.21875 C 10.785156 -3.851562 10.707031 -3.457031 10.59375 -3.03125 C 10.488281 -2.613281 10.390625 -2.15625 10.296875 -1.65625 L -0.359375 -1.65625 L -0.359375 -4.21875 L 2.8125 -4.21875 C 2.96875 -5.0625 3.164062 -5.78125 3.40625 -6.375 C 3.65625 -6.976562 3.960938 -7.46875 4.328125 -7.84375 C 4.691406 -8.226562 5.117188 -8.503906 5.609375 -8.671875 C 6.109375 -8.847656 6.679688 -8.9375 7.328125 -8.9375 C 7.679688 -8.9375 8.035156 -8.914062 8.390625 -8.875 C 8.742188 -8.832031 9.117188 -8.757812 9.515625 -8.65625 C 9.472656 -8.46875 9.421875 -8.265625 9.359375 -8.046875 C 9.296875 -7.828125 9.238281 -7.613281 9.1875 -7.40625 C 9.144531 -7.195312 9.097656 -7 9.046875 -6.8125 C 9.003906 -6.632812 8.96875 -6.488281 8.9375 -6.375 C 8.34375 -6.53125 7.800781 -6.648438 7.3125 -6.734375 C 6.832031 -6.816406 6.359375 -6.859375 5.890625 -6.859375 C 5.328125 -6.859375 4.890625 -6.757812 4.578125 -6.5625 C 4.265625 -6.375 4.109375 -6.085938 4.109375 -5.703125 C 4.109375 -5.515625 4.171875 -5.328125 4.296875 -5.140625 C 4.421875 -4.960938 4.578125 -4.804688 4.765625 -4.671875 C 4.960938 -4.535156 5.175781 -4.425781 5.40625 -4.34375 C 5.632812 -4.257812 5.84375 -4.21875 6.03125 -4.21875 Z M 10.828125 -4.21875 "/></g></g></g><g fill="#ffffff" fill-opacity="1"><g transform="translate(105.840198, 245.787874)"><g><path d="M 4.734375 -7.4375 C 4.734375 -6.988281 4.679688 -6.535156 4.578125 -6.078125 C 4.484375 -5.628906 4.347656 -5.195312 4.171875 -4.78125 C 3.992188 -4.363281 3.78125 -3.972656 3.53125 -3.609375 C 3.289062 -3.242188 3.023438 -2.921875 2.734375 -2.640625 C 2.441406 -2.367188 2.132812 -2.148438 1.8125 -1.984375 C 1.488281 -1.816406 1.160156 -1.71875 0.828125 -1.6875 C 0.910156 -2.082031 0.984375 -2.441406 1.046875 -2.765625 C 1.117188 -3.097656 1.191406 -3.453125 1.265625 -3.828125 C 1.285156 -3.867188 1.296875 -3.898438 1.296875 -3.921875 C 1.296875 -3.953125 1.300781 -3.984375 1.3125 -4.015625 C 1.894531 -4.054688 2.347656 -4.238281 2.671875 -4.5625 C 2.992188 -4.882812 3.15625 -5.34375 3.15625 -5.9375 C 3.15625 -6.539062 3.144531 -7.207031 3.125 -7.9375 C 3.113281 -8.664062 3.09375 -9.421875 3.0625 -10.203125 C 3.039062 -10.992188 3.007812 -11.789062 2.96875 -12.59375 C 2.925781 -13.394531 2.882812 -14.171875 2.84375 -14.921875 C 3.039062 -15.140625 3.28125 -15.421875 3.5625 -15.765625 C 3.851562 -16.117188 4.191406 -16.5 4.578125 -16.90625 L 4.609375 -16.921875 C 4.617188 -16.929688 4.640625 -16.957031 4.671875 -17 C 4.703125 -16.894531 4.71875 -16.707031 4.71875 -16.4375 C 4.726562 -16.175781 4.734375 -15.8125 4.734375 -15.34375 Z M 4.734375 -7.4375 "/></g></g><g transform="translate(112.56676, 245.787874)"><g><path d="M 7.0625 -2.65625 C 7.0625 -0.0820312 5.773438 2.015625 3.203125 3.640625 C 2.535156 4.054688 1.832031 4.425781 1.09375 4.75 C 0.363281 5.070312 -0.390625 5.320312 -1.171875 5.5 C -1.066406 5.125 -0.972656 4.734375 -0.890625 4.328125 C -0.816406 3.929688 -0.695312 3.457031 -0.53125 2.90625 C -0.125 2.800781 0.375 2.617188 0.96875 2.359375 C 1.5625 2.109375 2.234375 1.78125 2.984375 1.375 C 3.984375 0.757812 4.738281 0.171875 5.25 -0.390625 C 5.769531 -0.960938 6.03125 -1.5 6.03125 -2 C 6.03125 -2.59375 5.816406 -3.140625 5.390625 -3.640625 C 4.972656 -4.140625 4.332031 -4.613281 3.46875 -5.0625 C 3.488281 -5.226562 3.535156 -5.414062 3.609375 -5.625 C 3.679688 -5.832031 3.757812 -6.050781 3.84375 -6.28125 C 3.925781 -6.519531 4.007812 -6.753906 4.09375 -6.984375 C 4.175781 -7.210938 4.238281 -7.421875 4.28125 -7.609375 C 5.21875 -6.992188 5.914062 -6.269531 6.375 -5.4375 C 6.832031 -4.613281 7.0625 -3.6875 7.0625 -2.65625 Z M 7.0625 -2.65625 "/></g></g></g><g fill="#ffffff" fill-opacity="1"><g transform="translate(121.625354, 245.787874)"><g><path d="M 5.890625 -12.234375 C 5.828125 -11.992188 5.757812 -11.75 5.6875 -11.5 C 5.625 -11.257812 5.5625 -11.035156 5.5 -10.828125 C 5.4375 -10.628906 5.375 -10.457031 5.3125 -10.3125 C 5.257812 -10.175781 5.21875 -10.078125 5.1875 -10.015625 L 4.375 -10.015625 C 4.394531 -10.109375 4.410156 -10.207031 4.421875 -10.3125 C 4.441406 -10.414062 4.453125 -10.488281 4.453125 -10.53125 C 4.453125 -10.863281 4.195312 -11.03125 3.6875 -11.03125 L 2.5625 -11.03125 C 2.632812 -11.5 2.722656 -11.929688 2.828125 -12.328125 C 2.929688 -12.734375 3.035156 -13.179688 3.140625 -13.671875 L 4.890625 -13.671875 C 5.296875 -13.671875 5.59375 -13.617188 5.78125 -13.515625 C 5.96875 -13.421875 6.0625 -13.265625 6.0625 -13.046875 C 6.0625 -12.960938 6.046875 -12.847656 6.015625 -12.703125 C 5.992188 -12.566406 5.953125 -12.410156 5.890625 -12.234375 Z M 9.125 -1.65625 L 7.09375 -1.65625 C 7.082031 -1.050781 6.988281 -0.457031 6.8125 0.125 C 6.632812 0.71875 6.382812 1.285156 6.0625 1.828125 C 5.738281 2.367188 5.347656 2.878906 4.890625 3.359375 C 4.429688 3.847656 3.914062 4.289062 3.34375 4.6875 C 2.988281 4.894531 2.617188 5.097656 2.234375 5.296875 C 1.859375 5.492188 1.476562 5.679688 1.09375 5.859375 C 0.707031 6.035156 0.320312 6.195312 -0.0625 6.34375 C -0.445312 6.488281 -0.816406 6.601562 -1.171875 6.6875 C -1.035156 6.195312 -0.914062 5.738281 -0.8125 5.3125 C -0.71875 4.882812 -0.609375 4.4375 -0.484375 3.96875 C -0.253906 3.90625 0 3.820312 0.28125 3.71875 C 0.570312 3.613281 0.875 3.488281 1.1875 3.34375 C 1.507812 3.195312 1.835938 3.035156 2.171875 2.859375 C 2.515625 2.679688 2.851562 2.488281 3.1875 2.28125 C 4.113281 1.71875 4.820312 1.132812 5.3125 0.53125 C 5.800781 -0.0625 6.046875 -0.644531 6.046875 -1.21875 C 6.046875 -1.738281 5.835938 -2.253906 5.421875 -2.765625 C 5.015625 -3.273438 4.363281 -3.773438 3.46875 -4.265625 C 3.59375 -4.742188 3.722656 -5.195312 3.859375 -5.625 C 3.992188 -6.050781 4.113281 -6.519531 4.21875 -7.03125 C 4.332031 -7 4.472656 -6.90625 4.640625 -6.75 C 4.804688 -6.601562 4.992188 -6.425781 5.203125 -6.21875 C 5.410156 -6.007812 5.628906 -5.785156 5.859375 -5.546875 C 6.085938 -5.316406 6.316406 -5.101562 6.546875 -4.90625 C 6.785156 -4.707031 7.015625 -4.539062 7.234375 -4.40625 C 7.460938 -4.28125 7.671875 -4.21875 7.859375 -4.21875 L 9.125 -4.21875 Z M 9.125 -1.65625 "/></g></g></g><g fill="#ffffff" fill-opacity="1"><g transform="translate(130.390978, 245.787874)"><g><path d="M 4.25 -16.6875 C 4.25 -13.65625 4.242188 -11.269531 4.234375 -9.53125 C 4.222656 -7.800781 4.207031 -6.738281 4.1875 -6.34375 C 4.101562 -5.601562 3.957031 -4.941406 3.75 -4.359375 C 3.550781 -3.785156 3.285156 -3.296875 2.953125 -2.890625 C 2.628906 -2.492188 2.25 -2.1875 1.8125 -1.96875 C 1.375 -1.757812 0.878906 -1.65625 0.328125 -1.65625 L -0.359375 -1.65625 L -0.359375 -4.21875 L 1.25 -4.21875 C 2.28125 -4.21875 2.796875 -4.90625 2.796875 -6.28125 C 2.796875 -7.363281 2.769531 -8.648438 2.71875 -10.140625 C 2.664062 -11.628906 2.582031 -13.367188 2.46875 -15.359375 C 2.570312 -15.472656 2.695312 -15.613281 2.84375 -15.78125 C 3 -15.945312 3.160156 -16.125 3.328125 -16.3125 C 3.503906 -16.5 3.675781 -16.679688 3.84375 -16.859375 C 4.007812 -17.046875 4.15625 -17.203125 4.28125 -17.328125 L 4.296875 -17.3125 C 4.273438 -17.289062 4.257812 -17.234375 4.25 -17.140625 C 4.25 -17.046875 4.25 -16.894531 4.25 -16.6875 Z M 4.25 -16.6875 "/></g></g></g><g fill="#ffffff" fill-opacity="1"><g transform="translate(136.672228, 245.787874)"><g><path d="M 4.734375 -7.4375 C 4.734375 -6.988281 4.679688 -6.535156 4.578125 -6.078125 C 4.484375 -5.628906 4.347656 -5.195312 4.171875 -4.78125 C 3.992188 -4.363281 3.78125 -3.972656 3.53125 -3.609375 C 3.289062 -3.242188 3.023438 -2.921875 2.734375 -2.640625 C 2.441406 -2.367188 2.132812 -2.148438 1.8125 -1.984375 C 1.488281 -1.816406 1.160156 -1.71875 0.828125 -1.6875 C 0.910156 -2.082031 0.984375 -2.441406 1.046875 -2.765625 C 1.117188 -3.097656 1.191406 -3.453125 1.265625 -3.828125 C 1.285156 -3.867188 1.296875 -3.898438 1.296875 -3.921875 C 1.296875 -3.953125 1.300781 -3.984375 1.3125 -4.015625 C 1.894531 -4.054688 2.347656 -4.238281 2.671875 -4.5625 C 2.992188 -4.882812 3.15625 -5.34375 3.15625 -5.9375 C 3.15625 -6.539062 3.144531 -7.207031 3.125 -7.9375 C 3.113281 -8.664062 3.09375 -9.421875 3.0625 -10.203125 C 3.039062 -10.992188 3.007812 -11.789062 2.96875 -12.59375 C 2.925781 -13.394531 2.882812 -14.171875 2.84375 -14.921875 C 3.039062 -15.140625 3.28125 -15.421875 3.5625 -15.765625 C 3.851562 -16.117188 4.191406 -16.5 4.578125 -16.90625 L 4.609375 -16.921875 C 4.617188 -16.929688 4.640625 -16.957031 4.671875 -17 C 4.703125 -16.894531 4.71875 -16.707031 4.71875 -16.4375 C 4.726562 -16.175781 4.734375 -15.8125 4.734375 -15.34375 Z M 4.734375 -7.4375 "/></g></g><g transform="translate(143.39879, 245.787874)"><g/></g><g transform="translate(149.844102, 245.787874)"><g><path d="M 11.09375 2.609375 C 10.957031 3.148438 10.832031 3.597656 10.71875 3.953125 C 10.601562 4.304688 10.5 4.617188 10.40625 4.890625 L 9.5625 4.859375 C 9.632812 4.703125 9.671875 4.550781 9.671875 4.40625 C 9.671875 4.25 9.613281 4.117188 9.5 4.015625 C 9.382812 3.921875 9.1875 3.875 8.90625 3.875 L 7.734375 3.875 C 7.765625 3.78125 7.800781 3.640625 7.84375 3.453125 C 7.894531 3.265625 7.945312 3.050781 8 2.8125 C 8.0625 2.582031 8.125 2.332031 8.1875 2.0625 C 8.25 1.800781 8.3125 1.539062 8.375 1.28125 L 10.0625 1.28125 C 10.519531 1.28125 10.828125 1.320312 10.984375 1.40625 C 11.140625 1.5 11.21875 1.648438 11.21875 1.859375 C 11.21875 1.953125 11.203125 2.0625 11.171875 2.1875 C 11.148438 2.3125 11.125 2.453125 11.09375 2.609375 Z M 18.984375 -4.90625 C 18.984375 -3.863281 18.753906 -3.0625 18.296875 -2.5 C 17.835938 -1.9375 17.179688 -1.65625 16.328125 -1.65625 L 3.59375 -1.65625 C 2.363281 -1.65625 1.457031 -1.921875 0.875 -2.453125 C 0.289062 -2.992188 0 -3.8125 0 -4.90625 C 0 -5.382812 0.0703125 -5.863281 0.21875 -6.34375 C 0.363281 -6.832031 0.5625 -7.269531 0.8125 -7.65625 C 1.0625 -8.050781 1.351562 -8.367188 1.6875 -8.609375 C 2.019531 -8.859375 2.375 -8.984375 2.75 -8.984375 L 4.625 -8.984375 C 4.539062 -8.753906 4.472656 -8.539062 4.421875 -8.34375 C 4.378906 -8.15625 4.335938 -7.972656 4.296875 -7.796875 C 4.253906 -7.617188 4.210938 -7.441406 4.171875 -7.265625 C 4.128906 -7.085938 4.070312 -6.890625 4 -6.671875 L 2.296875 -6.671875 C 1.828125 -6.671875 1.46875 -6.59375 1.21875 -6.4375 C 0.96875 -6.289062 0.84375 -6.0625 0.84375 -5.75 C 0.84375 -5.257812 1.066406 -4.878906 1.515625 -4.609375 C 1.972656 -4.347656 2.640625 -4.21875 3.515625 -4.21875 L 16.46875 -4.21875 C 16.601562 -4.21875 16.765625 -4.21875 16.953125 -4.21875 C 17.140625 -4.21875 17.3125 -4.226562 17.46875 -4.25 C 17.632812 -4.28125 17.769531 -4.332031 17.875 -4.40625 C 17.988281 -4.488281 18.046875 -4.613281 18.046875 -4.78125 C 18.046875 -5.0625 17.835938 -5.359375 17.421875 -5.671875 C 17.003906 -5.984375 16.359375 -6.335938 15.484375 -6.734375 L 15.5 -6.890625 C 15.59375 -7.242188 15.691406 -7.613281 15.796875 -8 C 15.910156 -8.382812 16 -8.753906 16.0625 -9.109375 C 17.0625 -8.753906 17.796875 -8.222656 18.265625 -7.515625 C 18.742188 -6.804688 18.984375 -5.9375 18.984375 -4.90625 Z M 18.984375 -4.90625 "/></g></g></g><g fill="#ffffff" fill-opacity="1"><g transform="translate(170.820663, 245.787874)"><g><path d="M 5.890625 -4.21875 C 5.640625 -4.925781 5.300781 -5.476562 4.875 -5.875 C 4.457031 -6.28125 3.957031 -6.484375 3.375 -6.484375 C 3.1875 -6.484375 3.015625 -6.441406 2.859375 -6.359375 C 2.710938 -6.285156 2.585938 -6.1875 2.484375 -6.0625 C 2.378906 -5.945312 2.296875 -5.8125 2.234375 -5.65625 C 2.171875 -5.5 2.140625 -5.34375 2.140625 -5.1875 C 2.140625 -4.9375 2.222656 -4.710938 2.390625 -4.515625 C 2.554688 -4.316406 2.828125 -4.21875 3.203125 -4.21875 Z M 10.25 -1.65625 L 8.3125 -1.65625 C 8.164062 -0.289062 7.753906 0.953125 7.078125 2.078125 C 6.410156 3.210938 5.46875 4.160156 4.25 4.921875 C 3.25 5.566406 1.832031 6.171875 0 6.734375 C 0.0195312 6.609375 0.0546875 6.441406 0.109375 6.234375 C 0.171875 6.023438 0.234375 5.796875 0.296875 5.546875 C 0.367188 5.296875 0.4375 5.039062 0.5 4.78125 C 0.5625 4.53125 0.609375 4.300781 0.640625 4.09375 C 1.140625 3.925781 1.644531 3.726562 2.15625 3.5 C 2.664062 3.28125 3.160156 3.035156 3.640625 2.765625 C 4.128906 2.503906 4.582031 2.222656 5 1.921875 C 5.425781 1.628906 5.796875 1.332031 6.109375 1.03125 C 6.421875 0.726562 6.664062 0.425781 6.84375 0.125 C 7.03125 -0.164062 7.125 -0.4375 7.125 -0.6875 C 7.125 -1.332031 6.820312 -1.65625 6.21875 -1.65625 L 3.15625 -1.65625 C 2.675781 -1.65625 2.300781 -1.710938 2.03125 -1.828125 C 1.757812 -1.941406 1.5625 -2.113281 1.4375 -2.34375 C 1.3125 -2.570312 1.234375 -2.847656 1.203125 -3.171875 C 1.179688 -3.492188 1.171875 -3.867188 1.171875 -4.296875 C 1.171875 -4.503906 1.195312 -4.773438 1.25 -5.109375 C 1.300781 -5.441406 1.375 -5.796875 1.46875 -6.171875 C 1.570312 -6.554688 1.695312 -6.941406 1.84375 -7.328125 C 1.988281 -7.710938 2.160156 -8.054688 2.359375 -8.359375 C 2.554688 -8.671875 2.773438 -8.921875 3.015625 -9.109375 C 3.265625 -9.304688 3.535156 -9.40625 3.828125 -9.40625 C 4.242188 -9.40625 4.644531 -9.285156 5.03125 -9.046875 C 5.414062 -8.816406 5.820312 -8.453125 6.25 -7.953125 C 6.425781 -7.734375 6.597656 -7.476562 6.765625 -7.1875 C 6.941406 -6.894531 7.109375 -6.585938 7.265625 -6.265625 C 7.421875 -5.941406 7.566406 -5.601562 7.703125 -5.25 C 7.835938 -4.90625 7.96875 -4.5625 8.09375 -4.21875 L 10.25 -4.21875 Z M 10.25 -1.65625 "/></g></g></g><g fill="#ffffff" fill-opacity="1"><g transform="translate(180.711288, 245.787874)"><g><path d="M 13.484375 -4.21875 C 13.984375 -4.21875 14.363281 -4.3125 14.625 -4.5 C 14.882812 -4.6875 15.015625 -4.957031 15.015625 -5.3125 C 15.015625 -5.519531 14.953125 -5.726562 14.828125 -5.9375 C 14.703125 -6.144531 14.53125 -6.328125 14.3125 -6.484375 C 14.101562 -6.648438 13.847656 -6.78125 13.546875 -6.875 C 13.253906 -6.96875 12.9375 -7.015625 12.59375 -7.015625 C 12.175781 -7.015625 11.738281 -6.953125 11.28125 -6.828125 C 10.832031 -6.703125 10.398438 -6.519531 9.984375 -6.28125 C 9.566406 -6.039062 9.175781 -5.742188 8.8125 -5.390625 C 8.457031 -5.046875 8.164062 -4.65625 7.9375 -4.21875 Z M 17.984375 -1.65625 L 15.953125 -1.65625 C 15.703125 -1.65625 15.4375 -1.707031 15.15625 -1.8125 C 14.882812 -1.925781 14.609375 -2.09375 14.328125 -2.3125 C 13.921875 -2.09375 13.5 -1.925781 13.0625 -1.8125 C 12.625 -1.707031 12.203125 -1.65625 11.796875 -1.65625 L 7.171875 -1.65625 C 6.535156 -1.65625 5.992188 -1.84375 5.546875 -2.21875 C 5.097656 -2.601562 4.757812 -3.191406 4.53125 -3.984375 C 3.96875 -2.429688 3.273438 -1.65625 2.453125 -1.65625 L -0.359375 -1.65625 L -0.359375 -4.21875 L 2.828125 -4.21875 C 3.191406 -4.21875 3.503906 -4.304688 3.765625 -4.484375 C 4.035156 -4.671875 4.257812 -4.9375 4.4375 -5.28125 C 4.46875 -5.34375 4.488281 -5.476562 4.5 -5.6875 C 4.507812 -5.90625 4.515625 -6.222656 4.515625 -6.640625 C 4.515625 -7.117188 4.664062 -7.359375 4.96875 -7.359375 C 5.207031 -7.359375 5.328125 -7.117188 5.328125 -6.640625 C 5.328125 -5.859375 5.488281 -5.265625 5.8125 -4.859375 C 6.144531 -4.453125 6.640625 -4.238281 7.296875 -4.21875 C 7.484375 -4.582031 7.679688 -4.941406 7.890625 -5.296875 C 8.109375 -5.660156 8.328125 -6.003906 8.546875 -6.328125 C 8.773438 -6.660156 9.007812 -6.96875 9.25 -7.25 C 9.488281 -7.53125 9.71875 -7.78125 9.9375 -8 C 10.46875 -8.4375 11.03125 -8.773438 11.625 -9.015625 C 12.21875 -9.253906 12.804688 -9.378906 13.390625 -9.390625 C 13.816406 -9.390625 14.210938 -9.335938 14.578125 -9.234375 C 14.941406 -9.128906 15.253906 -8.96875 15.515625 -8.75 C 15.785156 -8.53125 15.992188 -8.253906 16.140625 -7.921875 C 16.285156 -7.585938 16.359375 -7.191406 16.359375 -6.734375 C 16.359375 -6.367188 16.304688 -5.976562 16.203125 -5.5625 C 16.109375 -5.15625 15.960938 -4.707031 15.765625 -4.21875 L 17.984375 -4.21875 Z M 17.984375 -1.65625 "/></g></g></g><g fill="#ffffff" fill-opacity="1"><g transform="translate(198.336286, 245.787874)"><g><path d="M 4.203125 -16.921875 C 4.203125 -16.148438 4.203125 -15.359375 4.203125 -14.546875 C 4.203125 -13.742188 4.195312 -12.960938 4.1875 -12.203125 C 4.175781 -11.441406 4.164062 -10.722656 4.15625 -10.046875 C 4.15625 -9.367188 4.148438 -8.765625 4.140625 -8.234375 C 4.140625 -7.703125 4.132812 -7.265625 4.125 -6.921875 C 4.125 -6.585938 4.125 -6.382812 4.125 -6.3125 C 4.125 -6.039062 4.21875 -5.789062 4.40625 -5.5625 C 4.59375 -5.34375 4.820312 -5.144531 5.09375 -4.96875 C 5.375 -4.789062 5.660156 -4.640625 5.953125 -4.515625 C 6.253906 -4.390625 6.515625 -4.289062 6.734375 -4.21875 L 7.484375 -4.21875 L 7.484375 -1.65625 L 6.796875 -1.65625 C 6.347656 -1.65625 5.953125 -1.757812 5.609375 -1.96875 C 5.265625 -2.175781 4.96875 -2.421875 4.71875 -2.703125 C 4.46875 -2.992188 4.265625 -3.296875 4.109375 -3.609375 C 3.953125 -3.921875 3.832031 -4.1875 3.75 -4.40625 C 3.550781 -3.769531 3.363281 -3.269531 3.1875 -2.90625 C 3.019531 -2.539062 2.84375 -2.265625 2.65625 -2.078125 C 2.46875 -1.890625 2.257812 -1.769531 2.03125 -1.71875 C 1.800781 -1.664062 1.535156 -1.640625 1.234375 -1.640625 C 1.085938 -1.640625 0.9375 -1.640625 0.78125 -1.640625 C 0.625 -1.648438 0.457031 -1.65625 0.28125 -1.65625 L -0.359375 -1.65625 L -0.359375 -4.21875 L 1.25 -4.21875 C 1.75 -4.21875 2.128906 -4.390625 2.390625 -4.734375 C 2.648438 -5.078125 2.78125 -5.59375 2.78125 -6.28125 C 2.78125 -6.644531 2.773438 -7.078125 2.765625 -7.578125 C 2.753906 -8.078125 2.742188 -8.613281 2.734375 -9.1875 C 2.722656 -9.757812 2.707031 -10.347656 2.6875 -10.953125 C 2.664062 -11.554688 2.640625 -12.144531 2.609375 -12.71875 C 2.585938 -13.289062 2.5625 -13.820312 2.53125 -14.3125 C 2.5 -14.8125 2.460938 -15.234375 2.421875 -15.578125 C 2.515625 -15.671875 2.640625 -15.796875 2.796875 -15.953125 C 2.953125 -16.117188 3.113281 -16.296875 3.28125 -16.484375 C 3.457031 -16.671875 3.628906 -16.859375 3.796875 -17.046875 C 3.960938 -17.234375 4.109375 -17.390625 4.234375 -17.515625 L 4.25 -17.5 C 4.21875 -17.476562 4.203125 -17.285156 4.203125 -16.921875 Z M 4.203125 -16.921875 "/></g></g></g><g fill="#ffffff" fill-opacity="1"><g transform="translate(205.473005, 245.787874)"><g><path d="M 4.25 -16.6875 C 4.25 -13.65625 4.242188 -11.269531 4.234375 -9.53125 C 4.222656 -7.800781 4.207031 -6.738281 4.1875 -6.34375 C 4.101562 -5.601562 3.957031 -4.941406 3.75 -4.359375 C 3.550781 -3.785156 3.285156 -3.296875 2.953125 -2.890625 C 2.628906 -2.492188 2.25 -2.1875 1.8125 -1.96875 C 1.375 -1.757812 0.878906 -1.65625 0.328125 -1.65625 L -0.359375 -1.65625 L -0.359375 -4.21875 L 1.25 -4.21875 C 2.28125 -4.21875 2.796875 -4.90625 2.796875 -6.28125 C 2.796875 -7.363281 2.769531 -8.648438 2.71875 -10.140625 C 2.664062 -11.628906 2.582031 -13.367188 2.46875 -15.359375 C 2.570312 -15.472656 2.695312 -15.613281 2.84375 -15.78125 C 3 -15.945312 3.160156 -16.125 3.328125 -16.3125 C 3.503906 -16.5 3.675781 -16.679688 3.84375 -16.859375 C 4.007812 -17.046875 4.15625 -17.203125 4.28125 -17.328125 L 4.296875 -17.3125 C 4.273438 -17.289062 4.257812 -17.234375 4.25 -17.140625 C 4.25 -17.046875 4.25 -16.894531 4.25 -16.6875 Z M 4.25 -16.6875 "/></g></g></g><g fill="#ffffff" fill-opacity="1"><g transform="translate(211.754254, 245.787874)"><g/></g></g><g fill="#ffffff" fill-opacity="1"><g transform="translate(218.199566, 245.787874)"><g><path d="M 21.125 -1.65625 L 19.875 -1.65625 C 19.613281 -1.65625 19.378906 -1.707031 19.171875 -1.8125 C 18.960938 -1.914062 18.773438 -2.054688 18.609375 -2.234375 C 18.453125 -2.410156 18.316406 -2.609375 18.203125 -2.828125 C 18.097656 -3.054688 18.019531 -3.289062 17.96875 -3.53125 C 17.9375 -3.664062 17.90625 -3.765625 17.875 -3.828125 C 17.851562 -3.890625 17.828125 -3.921875 17.796875 -3.921875 C 17.753906 -3.921875 17.695312 -3.847656 17.625 -3.703125 C 17.550781 -3.566406 17.457031 -3.40625 17.34375 -3.21875 C 17.238281 -3.03125 17.097656 -2.84375 16.921875 -2.65625 C 16.753906 -2.46875 16.539062 -2.316406 16.28125 -2.203125 C 16.03125 -2.046875 15.726562 -1.914062 15.375 -1.8125 C 15.019531 -1.707031 14.65625 -1.65625 14.28125 -1.65625 L 2.9375 -1.65625 C 2.488281 -1.65625 2.082031 -1.726562 1.71875 -1.875 C 1.351562 -2.03125 1.039062 -2.238281 0.78125 -2.5 C 0.53125 -2.757812 0.335938 -3.054688 0.203125 -3.390625 C 0.0664062 -3.734375 0 -4.09375 0 -4.46875 C 0 -5.007812 0.0703125 -5.539062 0.21875 -6.0625 C 0.375 -6.59375 0.566406 -7.0625 0.796875 -7.46875 C 1.035156 -7.882812 1.296875 -8.21875 1.578125 -8.46875 C 1.859375 -8.71875 2.117188 -8.84375 2.359375 -8.84375 L 4.515625 -8.84375 C 4.460938 -8.6875 4.40625 -8.503906 4.34375 -8.296875 C 4.28125 -8.097656 4.21875 -7.890625 4.15625 -7.671875 C 4.09375 -7.460938 4.035156 -7.257812 3.984375 -7.0625 C 3.929688 -6.863281 3.882812 -6.691406 3.84375 -6.546875 C 3.84375 -6.515625 3.835938 -6.5 3.828125 -6.5 L 1.96875 -6.5 C 1.632812 -6.5 1.378906 -6.414062 1.203125 -6.25 C 1.023438 -6.09375 0.9375 -5.878906 0.9375 -5.609375 C 0.9375 -5.429688 0.984375 -5.257812 1.078125 -5.09375 C 1.171875 -4.925781 1.300781 -4.773438 1.46875 -4.640625 C 1.632812 -4.515625 1.832031 -4.410156 2.0625 -4.328125 C 2.289062 -4.253906 2.535156 -4.21875 2.796875 -4.21875 L 15.3125 -4.21875 C 16.113281 -4.21875 16.710938 -4.410156 17.109375 -4.796875 C 17.503906 -5.179688 17.703125 -5.75 17.703125 -6.5 C 17.703125 -6.875 17.84375 -7.0625 18.125 -7.0625 C 18.3125 -7.0625 18.40625 -6.875 18.40625 -6.5 C 18.40625 -5.75 18.550781 -5.179688 18.84375 -4.796875 C 19.132812 -4.410156 19.550781 -4.21875 20.09375 -4.21875 L 21.125 -4.21875 Z M 11.09375 2.609375 C 10.957031 3.148438 10.832031 3.597656 10.71875 3.953125 C 10.601562 4.304688 10.5 4.617188 10.40625 4.890625 L 9.5625 4.859375 C 9.632812 4.703125 9.671875 4.550781 9.671875 4.40625 C 9.671875 4.25 9.613281 4.117188 9.5 4.015625 C 9.382812 3.921875 9.1875 3.875 8.90625 3.875 L 7.734375 3.875 C 7.765625 3.78125 7.800781 3.640625 7.84375 3.453125 C 7.894531 3.265625 7.945312 3.050781 8 2.8125 C 8.0625 2.582031 8.125 2.332031 8.1875 2.0625 C 8.25 1.800781 8.3125 1.539062 8.375 1.28125 L 10.0625 1.28125 C 10.519531 1.28125 10.828125 1.320312 10.984375 1.40625 C 11.140625 1.5 11.21875 1.648438 11.21875 1.859375 C 11.21875 1.953125 11.203125 2.0625 11.171875 2.1875 C 11.148438 2.3125 11.125 2.453125 11.09375 2.609375 Z M 11.09375 2.609375 "/></g></g></g><g fill="#ffffff" fill-opacity="1"><g transform="translate(238.96519, 245.787874)"><g><path d="M 14 -4.53125 C 14 -4.15625 13.929688 -3.789062 13.796875 -3.4375 C 13.671875 -3.09375 13.492188 -2.785156 13.265625 -2.515625 C 13.046875 -2.253906 12.785156 -2.046875 12.484375 -1.890625 C 12.191406 -1.734375 11.878906 -1.65625 11.546875 -1.65625 L 10.875 -1.65625 C 10.613281 -1.65625 10.363281 -1.695312 10.125 -1.78125 C 9.894531 -1.863281 9.6875 -1.976562 9.5 -2.125 C 9.3125 -2.28125 9.15625 -2.460938 9.03125 -2.671875 C 8.914062 -2.878906 8.851562 -3.113281 8.84375 -3.375 L 8.375 -3.375 C 8.363281 -3.175781 8.304688 -2.972656 8.203125 -2.765625 C 8.109375 -2.554688 7.976562 -2.367188 7.8125 -2.203125 C 7.65625 -2.035156 7.472656 -1.898438 7.265625 -1.796875 C 7.066406 -1.703125 6.851562 -1.65625 6.625 -1.65625 C 6.101562 -1.65625 5.679688 -1.804688 5.359375 -2.109375 C 5.046875 -2.410156 4.828125 -2.898438 4.703125 -3.578125 C 4.210938 -2.910156 3.722656 -2.421875 3.234375 -2.109375 C 2.742188 -1.804688 2.222656 -1.65625 1.671875 -1.65625 L -0.359375 -1.65625 L -0.359375 -4.21875 L 1.703125 -4.21875 C 2.285156 -4.21875 2.769531 -4.257812 3.15625 -4.34375 C 3.539062 -4.4375 3.828125 -4.566406 4.015625 -4.734375 C 4.484375 -5.179688 4.71875 -5.816406 4.71875 -6.640625 C 4.71875 -6.898438 4.800781 -7.03125 4.96875 -7.03125 C 5.164062 -7.03125 5.265625 -6.882812 5.265625 -6.59375 C 5.265625 -5.789062 5.285156 -5.351562 5.328125 -5.28125 C 5.515625 -4.9375 5.738281 -4.671875 6 -4.484375 C 6.269531 -4.304688 6.5625 -4.21875 6.875 -4.21875 C 7.195312 -4.21875 7.457031 -4.265625 7.65625 -4.359375 C 7.851562 -4.460938 8.003906 -4.609375 8.109375 -4.796875 C 8.222656 -4.984375 8.300781 -5.210938 8.34375 -5.484375 C 8.382812 -5.765625 8.40625 -6.085938 8.40625 -6.453125 C 8.40625 -6.929688 8.550781 -7.171875 8.84375 -7.171875 C 9 -7.171875 9.109375 -7.113281 9.171875 -7 C 9.234375 -6.882812 9.265625 -6.695312 9.265625 -6.4375 C 9.265625 -6.019531 9.296875 -5.671875 9.359375 -5.390625 C 9.421875 -5.109375 9.519531 -4.878906 9.65625 -4.703125 C 9.800781 -4.523438 9.988281 -4.398438 10.21875 -4.328125 C 10.445312 -4.253906 10.726562 -4.21875 11.0625 -4.21875 L 12.21875 -4.21875 C 12.53125 -4.21875 12.773438 -4.28125 12.953125 -4.40625 C 13.140625 -4.539062 13.234375 -4.722656 13.234375 -4.953125 C 13.234375 -5.078125 13.179688 -5.21875 13.078125 -5.375 C 12.972656 -5.53125 12.835938 -5.679688 12.671875 -5.828125 C 12.503906 -5.972656 12.316406 -6.113281 12.109375 -6.25 C 11.910156 -6.382812 11.710938 -6.492188 11.515625 -6.578125 C 11.546875 -6.679688 11.585938 -6.816406 11.640625 -6.984375 C 11.703125 -7.160156 11.757812 -7.347656 11.8125 -7.546875 C 11.875 -7.742188 11.9375 -7.941406 12 -8.140625 C 12.0625 -8.347656 12.117188 -8.535156 12.171875 -8.703125 C 12.554688 -8.378906 12.867188 -8.078125 13.109375 -7.796875 C 13.347656 -7.515625 13.53125 -7.21875 13.65625 -6.90625 C 13.789062 -6.59375 13.878906 -6.25 13.921875 -5.875 C 13.972656 -5.5 14 -5.050781 14 -4.53125 Z M 14 -4.53125 "/></g></g></g><g fill="#ffffff" fill-opacity="1"><g transform="translate(254.949564, 245.787874)"><g><path d="M 7.8125 -1.65625 L 5.625 -1.65625 C 4.800781 -1.65625 4.1875 -1.875 3.78125 -2.3125 C 3.375 -2.757812 3.171875 -3.46875 3.171875 -4.4375 C 3.171875 -4.5 3.171875 -4.6875 3.171875 -5 C 3.171875 -5.3125 3.171875 -5.6875 3.171875 -6.125 C 3.171875 -6.5625 3.164062 -7.019531 3.15625 -7.5 C 3.15625 -7.988281 3.15625 -8.441406 3.15625 -8.859375 C 3.15625 -9.285156 3.15625 -9.640625 3.15625 -9.921875 C 3.15625 -10.203125 3.15625 -10.351562 3.15625 -10.375 C 3.144531 -10.726562 3.128906 -11.09375 3.109375 -11.46875 C 3.085938 -11.851562 3.0625 -12.234375 3.03125 -12.609375 C 3.007812 -12.992188 2.976562 -13.367188 2.9375 -13.734375 C 2.90625 -14.097656 2.863281 -14.4375 2.8125 -14.75 C 3.082031 -15.125 3.363281 -15.484375 3.65625 -15.828125 C 3.957031 -16.179688 4.226562 -16.546875 4.46875 -16.921875 C 4.550781 -16.722656 4.601562 -16.25 4.625 -15.5 C 4.644531 -14.75 4.65625 -13.703125 4.65625 -12.359375 C 4.65625 -12.117188 4.65625 -11.820312 4.65625 -11.46875 C 4.65625 -11.113281 4.65625 -10.726562 4.65625 -10.3125 C 4.664062 -9.90625 4.671875 -9.476562 4.671875 -9.03125 C 4.671875 -8.59375 4.671875 -8.164062 4.671875 -7.75 C 4.671875 -7.332031 4.671875 -6.941406 4.671875 -6.578125 C 4.671875 -6.210938 4.671875 -5.90625 4.671875 -5.65625 C 4.722656 -5.207031 4.835938 -4.851562 5.015625 -4.59375 C 5.203125 -4.34375 5.460938 -4.21875 5.796875 -4.21875 L 7.8125 -4.21875 Z M 7.8125 -1.65625 "/></g></g></g><g fill="#ffffff" fill-opacity="1"><g transform="translate(262.402689, 245.787874)"><g><path d="M 14.703125 -1.65625 L 11.65625 -1.65625 C 10.988281 -1.65625 10.484375 -1.816406 10.140625 -2.140625 C 9.804688 -2.460938 9.640625 -2.976562 9.640625 -3.6875 C 9.640625 -3.820312 9.648438 -3.972656 9.671875 -4.140625 C 9.691406 -4.304688 9.703125 -4.457031 9.703125 -4.59375 C 9.703125 -4.707031 9.691406 -4.800781 9.671875 -4.875 C 9.648438 -4.957031 9.59375 -5 9.5 -5 C 9.414062 -5 9.304688 -4.914062 9.171875 -4.75 C 9.035156 -4.582031 8.863281 -4.375 8.65625 -4.125 C 8.457031 -3.875 8.222656 -3.601562 7.953125 -3.3125 C 7.679688 -3.03125 7.367188 -2.765625 7.015625 -2.515625 C 6.671875 -2.265625 6.28125 -2.054688 5.84375 -1.890625 C 5.40625 -1.734375 4.925781 -1.65625 4.40625 -1.65625 L -0.359375 -1.65625 L -0.359375 -4.21875 L 4.390625 -4.21875 C 4.878906 -4.21875 5.375 -4.28125 5.875 -4.40625 C 6.382812 -4.53125 6.847656 -4.679688 7.265625 -4.859375 C 7.679688 -5.035156 8.019531 -5.21875 8.28125 -5.40625 C 8.550781 -5.601562 8.6875 -5.78125 8.6875 -5.9375 C 8.6875 -6.0625 8.554688 -6.195312 8.296875 -6.34375 C 8.035156 -6.488281 7.722656 -6.625 7.359375 -6.75 C 7.003906 -6.882812 6.632812 -6.992188 6.25 -7.078125 C 5.863281 -7.160156 5.539062 -7.203125 5.28125 -7.203125 C 4.875 -7.203125 4.425781 -7.109375 3.9375 -6.921875 C 3.457031 -6.742188 3.035156 -6.472656 2.671875 -6.109375 C 2.753906 -6.429688 2.832031 -6.726562 2.90625 -7 C 2.988281 -7.28125 3.03125 -7.503906 3.03125 -7.671875 C 3.03125 -7.835938 3.117188 -8.03125 3.296875 -8.25 C 3.484375 -8.46875 3.710938 -8.675781 3.984375 -8.875 C 4.253906 -9.070312 4.546875 -9.238281 4.859375 -9.375 C 5.171875 -9.507812 5.453125 -9.578125 5.703125 -9.578125 C 6.390625 -9.578125 7.019531 -9.492188 7.59375 -9.328125 C 8.164062 -9.160156 8.71875 -8.972656 9.25 -8.765625 C 9.789062 -8.566406 10.328125 -8.378906 10.859375 -8.203125 C 11.398438 -8.035156 11.984375 -7.953125 12.609375 -7.953125 C 12.898438 -7.953125 13.203125 -7.976562 13.515625 -8.03125 C 13.484375 -7.84375 13.4375 -7.640625 13.375 -7.421875 C 13.320312 -7.210938 13.265625 -7 13.203125 -6.78125 C 13.140625 -6.5625 13.082031 -6.347656 13.03125 -6.140625 C 12.988281 -5.941406 12.960938 -5.753906 12.953125 -5.578125 L 12.46875 -5.578125 C 12.226562 -5.578125 11.976562 -5.5625 11.71875 -5.53125 C 11.457031 -5.507812 11.222656 -5.46875 11.015625 -5.40625 C 10.804688 -5.34375 10.632812 -5.257812 10.5 -5.15625 C 10.363281 -5.050781 10.296875 -4.921875 10.296875 -4.765625 C 10.296875 -4.609375 10.390625 -4.476562 10.578125 -4.375 C 10.765625 -4.269531 11.046875 -4.21875 11.421875 -4.21875 L 14.703125 -4.21875 Z M 14.703125 -1.65625 "/></g></g></g><g fill="#ffffff" fill-opacity="1"><g transform="translate(276.746438, 245.787874)"><g><path d="M 8.359375 -2.75 C 8.359375 -3.238281 8.070312 -3.726562 7.5 -4.21875 C 6.925781 -4.707031 6.078125 -5.203125 4.953125 -5.703125 C 4.941406 -5.546875 4.929688 -5.394531 4.921875 -5.25 C 4.910156 -5.113281 4.90625 -4.972656 4.90625 -4.828125 C 4.90625 -4.398438 4.945312 -4 5.03125 -3.625 C 5.125 -3.257812 5.257812 -2.9375 5.4375 -2.65625 C 5.613281 -2.375 5.84375 -2.15625 6.125 -2 C 6.414062 -1.84375 6.757812 -1.765625 7.15625 -1.765625 C 7.53125 -1.765625 7.820312 -1.84375 8.03125 -2 C 8.25 -2.164062 8.359375 -2.414062 8.359375 -2.75 Z M 11.421875 -1.65625 L 10.578125 -1.65625 C 10.421875 -1.65625 10.226562 -1.695312 10 -1.78125 C 9.78125 -1.863281 9.539062 -1.988281 9.28125 -2.15625 C 9.195312 -1.6875 9.0625 -1.253906 8.875 -0.859375 C 8.695312 -0.472656 8.484375 -0.132812 8.234375 0.15625 C 7.984375 0.445312 7.707031 0.671875 7.40625 0.828125 C 7.113281 0.984375 6.8125 1.0625 6.5 1.0625 C 5.71875 1.0625 5.113281 0.71875 4.6875 0.03125 C 4.269531 -0.644531 4.035156 -1.675781 3.984375 -3.0625 C 3.628906 -2.570312 3.28125 -2.210938 2.9375 -1.984375 C 2.601562 -1.765625 2.257812 -1.65625 1.90625 -1.65625 L -0.359375 -1.65625 L -0.359375 -4.21875 L 2.015625 -4.21875 C 2.253906 -4.21875 2.492188 -4.25 2.734375 -4.3125 C 2.972656 -4.375 3.191406 -4.457031 3.390625 -4.5625 C 3.597656 -4.675781 3.765625 -4.804688 3.890625 -4.953125 C 4.023438 -5.097656 4.09375 -5.253906 4.09375 -5.421875 C 4.09375 -5.660156 3.96875 -5.867188 3.71875 -6.046875 C 3.476562 -6.222656 3.078125 -6.335938 2.515625 -6.390625 C 2.640625 -6.859375 2.769531 -7.320312 2.90625 -7.78125 C 3.039062 -8.25 3.164062 -8.71875 3.28125 -9.1875 C 3.863281 -9.039062 4.40625 -8.867188 4.90625 -8.671875 C 5.40625 -8.472656 5.835938 -8.265625 6.203125 -8.046875 C 6.796875 -7.671875 7.3125 -7.273438 7.75 -6.859375 C 8.195312 -6.453125 8.546875 -6.015625 8.796875 -5.546875 C 9.171875 -4.660156 9.773438 -4.21875 10.609375 -4.21875 L 11.421875 -4.21875 Z M 11.421875 -1.65625 "/></g></g></g><g fill="#ffffff" fill-opacity="1"><g transform="translate(287.820656, 245.787874)"><g><path d="M 4.25 -16.6875 C 4.25 -13.65625 4.242188 -11.269531 4.234375 -9.53125 C 4.222656 -7.800781 4.207031 -6.738281 4.1875 -6.34375 C 4.101562 -5.601562 3.957031 -4.941406 3.75 -4.359375 C 3.550781 -3.785156 3.285156 -3.296875 2.953125 -2.890625 C 2.628906 -2.492188 2.25 -2.1875 1.8125 -1.96875 C 1.375 -1.757812 0.878906 -1.65625 0.328125 -1.65625 L -0.359375 -1.65625 L -0.359375 -4.21875 L 1.25 -4.21875 C 2.28125 -4.21875 2.796875 -4.90625 2.796875 -6.28125 C 2.796875 -7.363281 2.769531 -8.648438 2.71875 -10.140625 C 2.664062 -11.628906 2.582031 -13.367188 2.46875 -15.359375 C 2.570312 -15.472656 2.695312 -15.613281 2.84375 -15.78125 C 3 -15.945312 3.160156 -16.125 3.328125 -16.3125 C 3.503906 -16.5 3.675781 -16.679688 3.84375 -16.859375 C 4.007812 -17.046875 4.15625 -17.203125 4.28125 -17.328125 L 4.296875 -17.3125 C 4.273438 -17.289062 4.257812 -17.234375 4.25 -17.140625 C 4.25 -17.046875 4.25 -16.894531 4.25 -16.6875 Z M 4.25 -16.6875 "/></g></g></g><g fill="#ffffff" fill-opacity="1"><g transform="translate(294.101906, 245.787874)"><g><path d="M 4.734375 -7.4375 C 4.734375 -6.988281 4.679688 -6.535156 4.578125 -6.078125 C 4.484375 -5.628906 4.347656 -5.195312 4.171875 -4.78125 C 3.992188 -4.363281 3.78125 -3.972656 3.53125 -3.609375 C 3.289062 -3.242188 3.023438 -2.921875 2.734375 -2.640625 C 2.441406 -2.367188 2.132812 -2.148438 1.8125 -1.984375 C 1.488281 -1.816406 1.160156 -1.71875 0.828125 -1.6875 C 0.910156 -2.082031 0.984375 -2.441406 1.046875 -2.765625 C 1.117188 -3.097656 1.191406 -3.453125 1.265625 -3.828125 C 1.285156 -3.867188 1.296875 -3.898438 1.296875 -3.921875 C 1.296875 -3.953125 1.300781 -3.984375 1.3125 -4.015625 C 1.894531 -4.054688 2.347656 -4.238281 2.671875 -4.5625 C 2.992188 -4.882812 3.15625 -5.34375 3.15625 -5.9375 C 3.15625 -6.539062 3.144531 -7.207031 3.125 -7.9375 C 3.113281 -8.664062 3.09375 -9.421875 3.0625 -10.203125 C 3.039062 -10.992188 3.007812 -11.789062 2.96875 -12.59375 C 2.925781 -13.394531 2.882812 -14.171875 2.84375 -14.921875 C 3.039062 -15.140625 3.28125 -15.421875 3.5625 -15.765625 C 3.851562 -16.117188 4.191406 -16.5 4.578125 -16.90625 L 4.609375 -16.921875 C 4.617188 -16.929688 4.640625 -16.957031 4.671875 -17 C 4.703125 -16.894531 4.71875 -16.707031 4.71875 -16.4375 C 4.726562 -16.175781 4.734375 -15.8125 4.734375 -15.34375 Z M 4.734375 -7.4375 "/></g></g></g><g fill="#8eb61b" fill-opacity="1"><g transform="translate(141.639385, 272.13795)"><g><path d="M 11.9375 -4.296875 C 12.5 -4.242188 13.140625 -4.265625 13.859375 -4.359375 C 14.578125 -4.460938 15.34375 -4.625 16.15625 -4.84375 C 16.4375 -4.914062 16.648438 -4.863281 16.796875 -4.6875 C 16.941406 -4.519531 17.035156 -4.273438 17.078125 -3.953125 C 17.117188 -3.640625 17.125 -3.296875 17.09375 -2.921875 C 17.0625 -2.546875 17.003906 -2.191406 16.921875 -1.859375 C 16.691406 -0.859375 16.285156 0.0078125 15.703125 0.75 C 15.128906 1.488281 14.425781 2.097656 13.59375 2.578125 C 12.769531 3.054688 11.878906 3.398438 10.921875 3.609375 C 9.960938 3.828125 8.988281 3.90625 8 3.84375 C 7.007812 3.789062 6.0625 3.597656 5.15625 3.265625 C 4.25 2.941406 3.4375 2.472656 2.71875 1.859375 C 2.007812 1.253906 1.445312 0.507812 1.03125 -0.375 C 0.613281 -1.257812 0.40625 -2.285156 0.40625 -3.453125 C 0.40625 -3.660156 0.5 -3.796875 0.6875 -3.859375 C 0.882812 -3.921875 1.078125 -3.921875 1.265625 -3.859375 C 1.460938 -3.804688 1.5625 -3.6875 1.5625 -3.5 C 1.5625 -2.5625 1.78125 -1.742188 2.21875 -1.046875 C 2.65625 -0.347656 3.238281 0.222656 3.96875 0.671875 C 4.695312 1.128906 5.507812 1.453125 6.40625 1.640625 C 7.3125 1.828125 8.226562 1.878906 9.15625 1.796875 C 10.09375 1.722656 10.976562 1.5 11.8125 1.125 C 12.65625 0.757812 13.382812 0.242188 14 -0.421875 C 14.613281 -1.085938 15.046875 -1.90625 15.296875 -2.875 C 14.609375 -2.632812 13.914062 -2.460938 13.21875 -2.359375 C 12.53125 -2.253906 11.859375 -2.253906 11.203125 -2.359375 C 11.003906 -2.398438 10.898438 -2.523438 10.890625 -2.734375 C 10.878906 -2.941406 10.929688 -3.164062 11.046875 -3.40625 C 11.160156 -3.65625 11.300781 -3.875 11.46875 -4.0625 C 11.632812 -4.25 11.789062 -4.328125 11.9375 -4.296875 Z M 10.203125 4.78125 C 10.296875 4.675781 10.40625 4.671875 10.53125 4.765625 C 10.65625 4.859375 10.753906 4.984375 10.828125 5.140625 C 10.898438 5.296875 10.894531 5.429688 10.8125 5.546875 C 10.519531 5.941406 10.144531 6.242188 9.6875 6.453125 C 9.226562 6.671875 8.757812 6.789062 8.28125 6.8125 C 7.800781 6.832031 7.378906 6.75 7.015625 6.5625 C 6.660156 6.375 6.441406 6.082031 6.359375 5.6875 C 6.316406 5.476562 6.375 5.296875 6.53125 5.140625 C 6.6875 4.992188 6.851562 4.890625 7.03125 4.828125 C 7.21875 4.765625 7.34375 4.789062 7.40625 4.90625 C 7.59375 5.238281 7.863281 5.425781 8.21875 5.46875 C 8.582031 5.519531 8.945312 5.472656 9.3125 5.328125 C 9.6875 5.191406 9.984375 5.007812 10.203125 4.78125 Z M 10.203125 4.78125 "/></g></g></g><g fill="#8eb61b" fill-opacity="1"><g transform="translate(157.115504, 272.13795)"><g><path d="M 7.59375 -8.140625 C 7.394531 -7.335938 7.207031 -6.613281 7.03125 -5.96875 C 6.851562 -5.320312 6.679688 -4.707031 6.515625 -4.125 C 6.347656 -3.550781 6.171875 -2.945312 5.984375 -2.3125 C 5.765625 -1.613281 5.425781 -1.050781 4.96875 -0.625 C 4.519531 -0.195312 4.019531 0.0859375 3.46875 0.234375 C 2.914062 0.378906 2.378906 0.390625 1.859375 0.265625 C 1.347656 0.148438 0.921875 -0.0859375 0.578125 -0.453125 C 0.234375 -0.828125 0.0390625 -1.320312 0 -1.9375 C -0.0078125 -2.28125 0.0351562 -2.6875 0.140625 -3.15625 C 0.242188 -3.625 0.4375 -4.160156 0.71875 -4.765625 L 1.15625 -4.578125 C 0.863281 -3.773438 0.75 -3.117188 0.8125 -2.609375 C 0.875 -2.109375 1.039062 -1.742188 1.3125 -1.515625 C 1.59375 -1.296875 1.910156 -1.191406 2.265625 -1.203125 C 2.617188 -1.222656 2.953125 -1.359375 3.265625 -1.609375 C 3.578125 -1.867188 3.800781 -2.234375 3.9375 -2.703125 C 4.164062 -3.460938 4.382812 -4.242188 4.59375 -5.046875 C 4.8125 -5.859375 5.066406 -6.84375 5.359375 -8 C 5.390625 -8.125 5.523438 -8.222656 5.765625 -8.296875 C 6.015625 -8.367188 6.285156 -8.410156 6.578125 -8.421875 C 6.867188 -8.441406 7.117188 -8.425781 7.328125 -8.375 C 7.546875 -8.332031 7.632812 -8.253906 7.59375 -8.140625 Z M 2.09375 4.125 C 1.800781 4.125 1.554688 4.007812 1.359375 3.78125 C 1.171875 3.5625 1.082031 3.304688 1.09375 3.015625 C 1.125 2.722656 1.25 2.472656 1.46875 2.265625 C 1.695312 2.054688 1.960938 1.953125 2.265625 1.953125 C 2.597656 1.953125 2.851562 2.054688 3.03125 2.265625 C 3.207031 2.472656 3.285156 2.734375 3.265625 3.046875 C 3.234375 3.335938 3.109375 3.585938 2.890625 3.796875 C 2.671875 4.015625 2.40625 4.125 2.09375 4.125 Z M 2.09375 4.125 "/></g></g></g><g fill="#8eb61b" fill-opacity="1"><g transform="translate(162.814067, 272.13795)"><g><path d="M 8.453125 -9.734375 C 8.160156 -9.734375 7.914062 -9.84375 7.71875 -10.0625 C 7.53125 -10.289062 7.441406 -10.550781 7.453125 -10.84375 C 7.484375 -11.132812 7.613281 -11.382812 7.84375 -11.59375 C 8.070312 -11.800781 8.332031 -11.90625 8.625 -11.90625 C 8.957031 -11.90625 9.210938 -11.800781 9.390625 -11.59375 C 9.566406 -11.382812 9.644531 -11.125 9.625 -10.8125 C 9.59375 -10.519531 9.46875 -10.265625 9.25 -10.046875 C 9.03125 -9.835938 8.765625 -9.734375 8.453125 -9.734375 Z M 13.4375 -3.15625 C 13.539062 -3.226562 13.644531 -3.234375 13.75 -3.171875 C 13.851562 -3.109375 13.890625 -3.019531 13.859375 -2.90625 L 13.625 -1.09375 C 13.625 -1.039062 13.585938 -0.992188 13.515625 -0.953125 C 11.921875 -0.191406 10.382812 0.34375 8.90625 0.65625 C 7.425781 0.976562 6.070312 1.09375 4.84375 1 C 3.625 0.914062 2.609375 0.640625 1.796875 0.171875 C 0.984375 -0.285156 0.4375 -0.929688 0.15625 -1.765625 C -0.125 -2.597656 -0.0546875 -3.597656 0.359375 -4.765625 L 0.796875 -4.578125 C 0.546875 -3.847656 0.515625 -3.234375 0.703125 -2.734375 C 0.890625 -2.234375 1.238281 -1.832031 1.75 -1.53125 C 2.257812 -1.238281 2.890625 -1.039062 3.640625 -0.9375 C 4.398438 -0.84375 5.21875 -0.832031 6.09375 -0.90625 C 5.46875 -1.382812 4.992188 -1.988281 4.671875 -2.71875 C 4.359375 -3.445312 4.273438 -4.222656 4.421875 -5.046875 C 4.535156 -5.734375 4.800781 -6.328125 5.21875 -6.828125 C 5.644531 -7.328125 6.179688 -7.703125 6.828125 -7.953125 C 7.472656 -8.210938 8.179688 -8.328125 8.953125 -8.296875 C 10.378906 -8.253906 11.375 -7.851562 11.9375 -7.09375 C 12.507812 -6.332031 12.550781 -5.34375 12.0625 -4.125 C 11.976562 -3.945312 11.828125 -3.820312 11.609375 -3.75 C 11.390625 -3.6875 11.148438 -3.664062 10.890625 -3.6875 C 10.640625 -3.707031 10.421875 -3.765625 10.234375 -3.859375 C 10.046875 -3.960938 9.945312 -4.097656 9.9375 -4.265625 C 10.25 -4.929688 10.332031 -5.492188 10.1875 -5.953125 C 10.050781 -6.421875 9.648438 -6.675781 8.984375 -6.71875 C 8.285156 -6.769531 7.726562 -6.597656 7.3125 -6.203125 C 6.894531 -5.816406 6.628906 -5.269531 6.515625 -4.5625 C 6.453125 -4.144531 6.476562 -3.734375 6.59375 -3.328125 C 6.71875 -2.921875 6.910156 -2.5625 7.171875 -2.25 C 7.441406 -1.9375 7.757812 -1.707031 8.125 -1.5625 C 8.5 -1.414062 8.894531 -1.390625 9.3125 -1.484375 L 9.359375 -1.484375 C 10.867188 -1.890625 12.226562 -2.445312 13.4375 -3.15625 Z M 13.4375 -3.15625 "/></g></g></g><g fill="#8eb61b" fill-opacity="1"><g transform="translate(177.068437, 272.13795)"><g><path d="M 4.90625 -10.984375 C 4.601562 -10.984375 4.351562 -11.09375 4.15625 -11.3125 C 3.96875 -11.53125 3.882812 -11.785156 3.90625 -12.078125 C 3.925781 -12.367188 4.050781 -12.617188 4.28125 -12.828125 C 4.507812 -13.035156 4.769531 -13.140625 5.0625 -13.140625 C 5.394531 -13.140625 5.648438 -13.035156 5.828125 -12.828125 C 6.003906 -12.617188 6.082031 -12.363281 6.0625 -12.0625 C 6.03125 -11.769531 5.90625 -11.515625 5.6875 -11.296875 C 5.46875 -11.085938 5.207031 -10.984375 4.90625 -10.984375 Z M -2.578125 4.703125 C -2.765625 4.703125 -2.890625 4.644531 -2.953125 4.53125 C -3.015625 4.414062 -3.015625 4.296875 -2.953125 4.171875 C -2.898438 4.046875 -2.8125 3.96875 -2.6875 3.9375 C -1.84375 3.789062 -1.140625 3.523438 -0.578125 3.140625 C -0.015625 2.765625 0.453125 2.253906 0.828125 1.609375 C 1.210938 0.972656 1.539062 0.203125 1.8125 -0.703125 C 2.09375 -1.609375 2.367188 -2.664062 2.640625 -3.875 C 2.921875 -5.09375 3.234375 -6.46875 3.578125 -8 C 3.628906 -8.25 3.78125 -8.441406 4.03125 -8.578125 C 4.289062 -8.722656 4.566406 -8.800781 4.859375 -8.8125 C 5.148438 -8.832031 5.394531 -8.785156 5.59375 -8.671875 C 5.800781 -8.566406 5.875 -8.390625 5.8125 -8.140625 C 5.394531 -6.046875 4.953125 -4.210938 4.484375 -2.640625 C 4.015625 -1.066406 3.46875 0.253906 2.84375 1.328125 C 2.226562 2.398438 1.484375 3.21875 0.609375 3.78125 C -0.265625 4.34375 -1.328125 4.648438 -2.578125 4.703125 Z M -2.578125 4.703125 "/></g></g></g><g fill="#8eb61b" fill-opacity="1"><g transform="translate(180.62755, 272.13795)"><g><path d="M 0.84375 -4.765625 L 1.28125 -4.578125 C 0.96875 -4.035156 0.789062 -3.507812 0.75 -3 C 0.707031 -2.488281 0.789062 -2.070312 1 -1.75 C 1.207031 -1.4375 1.5625 -1.28125 2.0625 -1.28125 C 2.644531 -1.28125 3.191406 -1.601562 3.703125 -2.25 C 4.222656 -2.90625 4.625 -3.726562 4.90625 -4.71875 C 5.3125 -6.144531 5.675781 -7.429688 6 -8.578125 C 6.332031 -9.722656 6.65625 -10.710938 6.96875 -11.546875 C 7.289062 -12.390625 7.65625 -13.070312 8.0625 -13.59375 C 8.476562 -14.113281 8.972656 -14.457031 9.546875 -14.625 C 9.796875 -14.664062 10.03125 -14.585938 10.25 -14.390625 C 10.476562 -14.191406 10.644531 -13.960938 10.75 -13.703125 C 10.851562 -13.441406 10.835938 -13.234375 10.703125 -13.078125 C 10.285156 -12.867188 9.910156 -12.484375 9.578125 -11.921875 C 9.242188 -11.367188 8.941406 -10.71875 8.671875 -9.96875 C 8.398438 -9.21875 8.148438 -8.414062 7.921875 -7.5625 C 7.691406 -6.71875 7.472656 -5.90625 7.265625 -5.125 C 7.046875 -4.363281 6.789062 -3.660156 6.5 -3.015625 C 6.21875 -2.367188 5.867188 -1.8125 5.453125 -1.34375 C 5.015625 -0.84375 4.492188 -0.457031 3.890625 -0.1875 C 3.296875 0.0820312 2.71875 0.21875 2.15625 0.21875 C 1.46875 0.21875 0.925781 -0.00390625 0.53125 -0.453125 C 0.144531 -0.898438 -0.03125 -1.5 0 -2.25 C 0.0390625 -3 0.320312 -3.835938 0.84375 -4.765625 Z M 0.84375 -4.765625 "/></g></g></g><g fill="#8eb61b" fill-opacity="1"><g transform="translate(189.624001, 272.13795)"><g><path d="M 1.5625 -4.359375 L 1.875 -5.578125 C 2.113281 -6.421875 2.347656 -7.289062 2.578125 -8.1875 C 2.816406 -9.09375 3.066406 -9.972656 3.328125 -10.828125 C 3.597656 -11.691406 3.894531 -12.476562 4.21875 -13.1875 C 4.28125 -13.257812 4.414062 -13.304688 4.625 -13.328125 C 4.832031 -13.347656 5.0625 -13.34375 5.3125 -13.3125 C 5.5625 -13.28125 5.78125 -13.21875 5.96875 -13.125 C 6.164062 -13.03125 6.28125 -12.914062 6.3125 -12.78125 C 6.144531 -12.382812 5.988281 -11.976562 5.84375 -11.5625 C 5.695312 -11.144531 5.535156 -10.640625 5.359375 -10.046875 C 5.179688 -9.453125 4.96875 -8.695312 4.71875 -7.78125 C 4.476562 -6.875 4.171875 -5.710938 3.796875 -4.296875 C 3.609375 -3.617188 3.40625 -2.921875 3.1875 -2.203125 C 2.976562 -1.484375 2.800781 -0.847656 2.65625 -0.296875 C 2.582031 -0.179688 2.425781 -0.09375 2.1875 -0.03125 C 1.957031 0.03125 1.710938 0.0546875 1.453125 0.046875 C 1.191406 0.046875 0.957031 0.0078125 0.75 -0.0625 C 0.539062 -0.144531 0.425781 -0.265625 0.40625 -0.421875 C 0.550781 -0.929688 0.726562 -1.535156 0.9375 -2.234375 C 1.15625 -2.929688 1.363281 -3.640625 1.5625 -4.359375 Z M 1.5625 -4.359375 "/></g></g></g><g fill="#8eb61b" fill-opacity="1"><g transform="translate(194.542065, 272.13795)"><g/></g></g><g fill="#8eb61b" fill-opacity="1"><g transform="translate(198.340565, 272.13795)"><g><path d="M 0.953125 -4.34375 C 0.992188 -4.5 1.085938 -4.550781 1.234375 -4.5 C 1.378906 -4.457031 1.441406 -4.363281 1.421875 -4.21875 C 1.296875 -3.769531 1.234375 -3.335938 1.234375 -2.921875 C 1.234375 -2.515625 1.390625 -2.226562 1.703125 -2.0625 C 2.046875 -1.875 2.46875 -1.734375 2.96875 -1.640625 C 3.46875 -1.546875 3.976562 -1.507812 4.5 -1.53125 C 5.03125 -1.550781 5.503906 -1.632812 5.921875 -1.78125 C 6.347656 -1.925781 6.644531 -2.140625 6.8125 -2.421875 C 6.925781 -2.609375 7.03125 -2.898438 7.125 -3.296875 C 7.226562 -3.703125 7.316406 -4.160156 7.390625 -4.671875 C 7.472656 -5.179688 7.546875 -5.707031 7.609375 -6.25 C 7.679688 -6.789062 7.738281 -7.289062 7.78125 -7.75 C 7.832031 -8.21875 7.875 -8.609375 7.90625 -8.921875 C 7.925781 -9.035156 8 -9.109375 8.125 -9.140625 L 9.40625 -9.265625 C 9.476562 -9.273438 9.546875 -9.253906 9.609375 -9.203125 C 9.671875 -9.148438 9.695312 -9.078125 9.6875 -8.984375 C 9.625 -8.410156 9.535156 -7.757812 9.421875 -7.03125 C 9.316406 -6.300781 9.1875 -5.570312 9.03125 -4.84375 C 8.875 -4.125 8.707031 -3.460938 8.53125 -2.859375 C 8.351562 -2.253906 8.160156 -1.796875 7.953125 -1.484375 C 7.710938 -1.097656 7.328125 -0.78125 6.796875 -0.53125 C 6.265625 -0.28125 5.675781 -0.113281 5.03125 -0.03125 C 4.382812 0.0390625 3.75 0.03125 3.125 -0.0625 C 2.5 -0.15625 1.957031 -0.335938 1.5 -0.609375 C 1.039062 -0.878906 0.757812 -1.253906 0.65625 -1.734375 C 0.582031 -2.054688 0.578125 -2.421875 0.640625 -2.828125 C 0.703125 -3.234375 0.804688 -3.738281 0.953125 -4.34375 Z M 0.953125 -4.34375 "/></g></g></g><g fill="#8eb61b" fill-opacity="1"><g transform="translate(206.1786, 272.13795)"><g><path d="M 8.1875 -8.625 C 9.070312 -8.570312 9.773438 -8.320312 10.296875 -7.875 C 10.816406 -7.4375 11.171875 -6.882812 11.359375 -6.21875 C 11.554688 -5.550781 11.601562 -4.84375 11.5 -4.09375 C 11.394531 -3.351562 11.148438 -2.644531 10.765625 -1.96875 C 10.378906 -1.289062 9.863281 -0.722656 9.21875 -0.265625 C 8.582031 0.191406 7.835938 0.460938 6.984375 0.546875 C 6.429688 0.597656 5.914062 0.5 5.4375 0.25 C 4.957031 0 4.570312 -0.351562 4.28125 -0.8125 C 4 -0.445312 3.675781 -0.175781 3.3125 0 C 2.945312 0.175781 2.578125 0.253906 2.203125 0.234375 C 1.609375 0.222656 1.140625 0.046875 0.796875 -0.296875 C 0.453125 -0.640625 0.21875 -1.070312 0.09375 -1.59375 C -0.0195312 -2.113281 -0.0351562 -2.65625 0.046875 -3.21875 C 0.140625 -3.789062 0.320312 -4.304688 0.59375 -4.765625 L 1.046875 -4.578125 C 0.742188 -3.796875 0.625 -3.148438 0.6875 -2.640625 C 0.75 -2.128906 0.910156 -1.757812 1.171875 -1.53125 C 1.429688 -1.300781 1.738281 -1.191406 2.09375 -1.203125 C 2.445312 -1.222656 2.78125 -1.351562 3.09375 -1.59375 C 3.414062 -1.832031 3.648438 -2.175781 3.796875 -2.625 C 3.796875 -2.863281 3.816406 -3.109375 3.859375 -3.359375 C 3.921875 -3.773438 4.039062 -4.222656 4.21875 -4.703125 C 4.40625 -5.191406 4.625 -5.703125 4.875 -6.234375 C 4.988281 -6.328125 5.15625 -6.398438 5.375 -6.453125 C 5.601562 -6.515625 5.847656 -6.550781 6.109375 -6.5625 C 6.367188 -6.570312 6.59375 -6.554688 6.78125 -6.515625 C 6.96875 -6.472656 7.0625 -6.394531 7.0625 -6.28125 C 6.601562 -5.394531 6.300781 -4.519531 6.15625 -3.65625 C 6.082031 -3.132812 6.082031 -2.660156 6.15625 -2.234375 C 6.226562 -1.804688 6.351562 -1.472656 6.53125 -1.234375 C 6.71875 -0.992188 6.941406 -0.894531 7.203125 -0.9375 C 7.628906 -1.007812 8 -1.25 8.3125 -1.65625 C 8.625 -2.0625 8.851562 -2.546875 9 -3.109375 C 9.15625 -3.671875 9.226562 -4.238281 9.21875 -4.8125 C 9.207031 -5.394531 9.09375 -5.898438 8.875 -6.328125 C 8.664062 -6.765625 8.34375 -7.035156 7.90625 -7.140625 C 7.125 -7.347656 6.101562 -7.234375 4.84375 -6.796875 C 4.707031 -6.773438 4.601562 -6.835938 4.53125 -6.984375 C 4.457031 -7.140625 4.429688 -7.3125 4.453125 -7.5 C 4.484375 -7.695312 4.570312 -7.835938 4.71875 -7.921875 C 5.363281 -8.179688 5.976562 -8.367188 6.5625 -8.484375 C 7.144531 -8.597656 7.6875 -8.644531 8.1875 -8.625 Z M 8.1875 -8.625 "/></g></g></g><g fill="#8eb61b" fill-opacity="1"><g transform="translate(216.715953, 272.13795)"><g><path d="M 13.21875 -4.8125 C 13.394531 -4.757812 13.507812 -4.625 13.5625 -4.40625 C 13.625 -4.1875 13.640625 -3.945312 13.609375 -3.6875 C 13.578125 -3.4375 13.515625 -3.210938 13.421875 -3.015625 C 13.328125 -2.828125 13.207031 -2.734375 13.0625 -2.734375 C 12.5625 -2.734375 11.992188 -2.660156 11.359375 -2.515625 C 10.734375 -2.367188 10.066406 -2.1875 9.359375 -1.96875 C 8.660156 -1.75 7.945312 -1.515625 7.21875 -1.265625 C 6.5 -1.023438 5.800781 -0.800781 5.125 -0.59375 C 3.613281 -0.164062 2.441406 0 1.609375 -0.09375 C 0.773438 -0.1875 0.265625 -0.609375 0.078125 -1.359375 C -0.0976562 -2.109375 0.0351562 -3.242188 0.484375 -4.765625 L 0.921875 -4.578125 C 0.648438 -3.867188 0.566406 -3.320312 0.671875 -2.9375 C 0.785156 -2.5625 1.039062 -2.3125 1.4375 -2.1875 C 1.84375 -2.0625 2.347656 -2.03125 2.953125 -2.09375 C 3.554688 -2.164062 4.222656 -2.300781 4.953125 -2.5 C 5.703125 -2.726562 6.503906 -2.984375 7.359375 -3.265625 C 8.222656 -3.554688 9.082031 -3.828125 9.9375 -4.078125 C 9.351562 -4.265625 8.847656 -4.5 8.421875 -4.78125 C 7.992188 -5.070312 7.664062 -5.316406 7.4375 -5.515625 C 7.019531 -5.898438 6.613281 -6.179688 6.21875 -6.359375 C 5.832031 -6.535156 5.5 -6.566406 5.21875 -6.453125 C 4.9375 -6.347656 4.765625 -6.078125 4.703125 -5.640625 C 4.671875 -5.535156 4.5625 -5.476562 4.375 -5.46875 C 4.1875 -5.457031 4.003906 -5.492188 3.828125 -5.578125 C 3.648438 -5.660156 3.554688 -5.773438 3.546875 -5.921875 C 3.503906 -6.347656 3.53125 -6.726562 3.625 -7.0625 C 3.726562 -7.40625 3.875 -7.691406 4.0625 -7.921875 C 4.414062 -8.347656 4.835938 -8.582031 5.328125 -8.625 C 5.816406 -8.664062 6.320312 -8.5625 6.84375 -8.3125 C 7.363281 -8.070312 7.84375 -7.738281 8.28125 -7.3125 C 8.582031 -7.039062 9 -6.742188 9.53125 -6.421875 C 10.070312 -6.109375 10.664062 -5.804688 11.3125 -5.515625 C 11.957031 -5.234375 12.59375 -5 13.21875 -4.8125 Z M 13.21875 -4.8125 "/></g></g></g><g fill="#8eb61b" fill-opacity="1"><g transform="translate(230.730421, 272.13795)"><g><path d="M 1.5625 -4.359375 L 1.875 -5.578125 C 2.113281 -6.421875 2.347656 -7.289062 2.578125 -8.1875 C 2.816406 -9.09375 3.066406 -9.972656 3.328125 -10.828125 C 3.597656 -11.691406 3.894531 -12.476562 4.21875 -13.1875 C 4.28125 -13.257812 4.414062 -13.304688 4.625 -13.328125 C 4.832031 -13.347656 5.0625 -13.34375 5.3125 -13.3125 C 5.5625 -13.28125 5.78125 -13.21875 5.96875 -13.125 C 6.164062 -13.03125 6.28125 -12.914062 6.3125 -12.78125 C 6.144531 -12.382812 5.988281 -11.976562 5.84375 -11.5625 C 5.695312 -11.144531 5.535156 -10.640625 5.359375 -10.046875 C 5.179688 -9.453125 4.96875 -8.695312 4.71875 -7.78125 C 4.476562 -6.875 4.171875 -5.710938 3.796875 -4.296875 C 3.609375 -3.617188 3.40625 -2.921875 3.1875 -2.203125 C 2.976562 -1.484375 2.800781 -0.847656 2.65625 -0.296875 C 2.582031 -0.179688 2.425781 -0.09375 2.1875 -0.03125 C 1.957031 0.03125 1.710938 0.0546875 1.453125 0.046875 C 1.191406 0.046875 0.957031 0.0078125 0.75 -0.0625 C 0.539062 -0.144531 0.425781 -0.265625 0.40625 -0.421875 C 0.550781 -0.929688 0.726562 -1.535156 0.9375 -2.234375 C 1.15625 -2.929688 1.363281 -3.640625 1.5625 -4.359375 Z M 1.5625 -4.359375 "/></g></g></g></svg>