<svg xmlns="http://www.w3.org/2000/svg" xmlns:xlink="http://www.w3.org/1999/xlink" width="500" zoomAndPan="magnify" viewBox="0 0 375 374.999991" height="500" preserveAspectRatio="xMidYMid meet" version="1.0"><defs><g/><clipPath id="8e8a8d4687"><path d="M 89 13.792969 L 265 13.792969 L 265 292 L 89 292 Z M 89 13.792969 " clip-rule="nonzero"/></clipPath><clipPath id="4efbe50296"><path d="M 189 216 L 313.5625 216 L 313.5625 292 L 189 292 Z M 189 216 " clip-rule="nonzero"/></clipPath><clipPath id="ac60c861f3"><path d="M 156 345 L 194 345 L 194 361.042969 L 156 361.042969 Z M 156 345 " clip-rule="nonzero"/></clipPath></defs><path fill="#fbb03b" d="M 78.363281 160.542969 C 78.363281 160.542969 74.121094 202.386719 110.808594 233.3125 C 147.496094 264.242188 155.074219 276.367188 157.503906 291.527344 C 144.765625 282.230469 119.085938 276.183594 103.621094 265.265625 C 93.25 257.945312 61.6875 230.886719 69.269531 188.738281 C 70.578125 181.449219 72.300781 173.277344 78.363281 160.539062 Z M 78.363281 160.542969 " fill-opacity="1" fill-rule="nonzero"/><g clip-path="url(#8e8a8d4687)"><path fill="#2e7627" d="M 262.007812 147.199219 C 254.988281 116.503906 234.867188 88.277344 226.226562 77.664062 C 231.484375 146.796875 192.269531 148.613281 164.371094 181.761719 C 148.183594 201.003906 151.03125 225.425781 151.03125 225.425781 C 136.882812 182.167969 180.691406 152.476562 196.109375 129.816406 C 216.324219 100.101562 209.320312 66.433594 204.398438 52.800781 C 196.511719 30.972656 178.726562 13.792969 178.726562 13.792969 C 178.726562 13.792969 181.148438 36.835938 124.753906 79.28125 C 68.355469 121.734375 85.335938 207.84375 130.210938 233.308594 C 130.210938 233.308594 96.78125 183.660156 127.179688 145.378906 C 140.992188 127.988281 164.011719 110.664062 170.875 94.203125 C 168.175781 102.945312 161.867188 117.226562 147.191406 133.554688 C 121.433594 162.207031 124.492188 209.761719 152.144531 247.839844 C 164.929688 265.445312 175.390625 291.519531 175.390625 291.519531 C 175.390625 291.519531 166.597656 231.789062 211.472656 191.765625 C 226.878906 178.027344 235.726562 166.601562 234.210938 151.894531 C 234.210938 151.894531 239.050781 165.214844 229.046875 181.589844 C 222.941406 191.582031 189.246094 225.867188 187.820312 257.867188 C 191.003906 250.285156 198.097656 241.671875 207.527344 236.035156 C 233.910156 220.265625 275.800781 207.535156 262.007812 147.195312 Z M 262.007812 147.199219 " fill-opacity="1" fill-rule="nonzero"/></g><g clip-path="url(#4efbe50296)"><path fill="#fbb03b" d="M 189.992188 291.527344 C 189.992188 291.527344 189.546875 277.210938 196.261719 266.664062 C 203.332031 255.546875 220.921875 233.917969 262.15625 234.324219 C 297.53125 234.671875 310.46875 222.601562 313.296875 216.132812 C 313.296875 216.132812 312.9375 252.777344 275.09375 267.675781 C 247.160156 278.671875 224.628906 268.464844 208.792969 274.144531 C 198.082031 277.988281 191.007812 289.304688 189.992188 291.527344 Z M 189.992188 291.527344 " fill-opacity="1" fill-rule="nonzero"/></g><path fill="#132835" d="M 205.355469 323.96875 L 144.90625 323.96875 C 140.523438 323.96875 136.972656 327.519531 136.972656 331.898438 C 136.972656 336.28125 140.523438 339.832031 144.90625 339.832031 L 205.355469 339.832031 C 209.738281 339.832031 213.289062 336.28125 213.289062 331.898438 C 213.289062 327.519531 209.738281 323.96875 205.355469 323.96875 Z M 205.355469 323.96875 " fill-opacity="1" fill-rule="nonzero"/><g clip-path="url(#ac60c861f3)"><path fill="#132835" d="M 185.34375 345.34375 L 164.910156 345.34375 C 160.53125 345.34375 156.980469 348.894531 156.980469 353.277344 C 156.980469 357.660156 160.53125 361.210938 164.910156 361.210938 L 185.34375 361.210938 C 189.726562 361.210938 193.277344 357.660156 193.277344 353.277344 C 193.277344 348.894531 189.726562 345.34375 185.34375 345.34375 Z M 185.34375 345.34375 " fill-opacity="1" fill-rule="nonzero"/></g><path fill="#132835" d="M 144.90625 318.460938 L 205.355469 318.460938 C 209.738281 318.460938 213.289062 314.910156 213.289062 310.527344 C 213.289062 306.144531 209.738281 302.59375 205.355469 302.59375 L 144.90625 302.59375 C 140.523438 302.59375 136.972656 306.144531 136.972656 310.527344 C 136.972656 314.910156 140.523438 318.460938 144.90625 318.460938 Z M 144.90625 318.460938 " fill-opacity="1" fill-rule="nonzero"/><g fill="#000000" fill-opacity="0.4"><g transform="translate(194.673345, 268.267896)"><g><path d="M -5.859375 -2.3125 C -5.828125 -1.988281 -5.765625 -1.734375 -5.671875 -1.546875 C -5.585938 -1.359375 -5.488281 -1.210938 -5.375 -1.109375 C -5.195312 -1.117188 -4.984375 -1.117188 -4.734375 -1.109375 C -4.484375 -1.109375 -4.226562 -1.109375 -3.96875 -1.109375 C -3.71875 -1.109375 -3.503906 -1.109375 -3.328125 -1.109375 C -3.421875 -1.285156 -3.503906 -1.492188 -3.578125 -1.734375 C -3.660156 -1.984375 -3.710938 -2.210938 -3.734375 -2.421875 C -3.753906 -2.628906 -3.738281 -2.8125 -3.6875 -2.96875 C -3.644531 -3.132812 -3.546875 -3.222656 -3.390625 -3.234375 C -3.367188 -3.242188 -3.347656 -3.242188 -3.328125 -3.234375 C -3.304688 -3.234375 -3.28125 -3.234375 -3.25 -3.234375 C -3.269531 -3.078125 -3.28125 -2.921875 -3.28125 -2.765625 C -3.28125 -2.609375 -3.269531 -2.453125 -3.25 -2.296875 C -3.226562 -2.097656 -3.195312 -1.898438 -3.15625 -1.703125 C -3.113281 -1.503906 -3.0625 -1.304688 -3 -1.109375 C -2.550781 -1.140625 -2.179688 -1.164062 -1.890625 -1.1875 C -1.609375 -1.207031 -1.359375 -1.222656 -1.140625 -1.234375 C -0.929688 -1.242188 -0.722656 -1.253906 -0.515625 -1.265625 C -0.523438 -1.316406 -0.53125 -1.378906 -0.53125 -1.453125 C -0.539062 -1.535156 -0.550781 -1.617188 -0.5625 -1.703125 C -0.613281 -2.148438 -0.671875 -2.503906 -0.734375 -2.765625 C -0.796875 -3.035156 -0.859375 -3.238281 -0.921875 -3.375 C -0.984375 -3.507812 -1.039062 -3.601562 -1.09375 -3.65625 C -1.039062 -3.726562 -0.988281 -3.773438 -0.9375 -3.796875 C -0.882812 -3.816406 -0.835938 -3.828125 -0.796875 -3.828125 C -0.671875 -3.847656 -0.566406 -3.804688 -0.484375 -3.703125 C -0.398438 -3.597656 -0.335938 -3.453125 -0.296875 -3.265625 C -0.253906 -3.085938 -0.222656 -2.890625 -0.203125 -2.671875 C -0.179688 -2.453125 -0.160156 -2.179688 -0.140625 -1.859375 C -0.117188 -1.535156 -0.0976562 -1.21875 -0.078125 -0.90625 C -0.0546875 -0.601562 -0.0351562 -0.335938 -0.015625 -0.109375 C -0.171875 -0.0859375 -0.296875 -0.265625 -0.390625 -0.640625 C -0.859375 -0.585938 -1.332031 -0.550781 -1.8125 -0.53125 C -2.289062 -0.507812 -2.789062 -0.515625 -3.3125 -0.546875 C -3.726562 -0.535156 -4.113281 -0.515625 -4.46875 -0.484375 C -4.832031 -0.460938 -5.160156 -0.4375 -5.453125 -0.40625 C -5.554688 -0.394531 -5.65625 -0.382812 -5.75 -0.375 C -5.851562 -0.363281 -5.945312 -0.347656 -6.03125 -0.328125 C -6.09375 -0.515625 -6.128906 -0.65625 -6.140625 -0.75 C -6.148438 -0.84375 -6.117188 -0.921875 -6.046875 -0.984375 C -5.972656 -1.054688 -5.859375 -1.097656 -5.703125 -1.109375 L -5.671875 -1.109375 C -5.828125 -1.253906 -5.957031 -1.414062 -6.0625 -1.59375 C -6.164062 -1.78125 -6.242188 -1.972656 -6.296875 -2.171875 C -6.347656 -2.367188 -6.382812 -2.546875 -6.40625 -2.703125 C -6.425781 -2.898438 -6.421875 -3.070312 -6.390625 -3.21875 C -6.367188 -3.363281 -6.289062 -3.445312 -6.15625 -3.46875 C -6.070312 -3.476562 -5.957031 -3.445312 -5.8125 -3.375 C -5.863281 -3.226562 -5.890625 -3.0625 -5.890625 -2.875 C -5.890625 -2.6875 -5.878906 -2.5 -5.859375 -2.3125 Z M -5.859375 -2.3125 "/></g></g></g><g fill="#000000" fill-opacity="0.4"><g transform="translate(194.316226, 264.216387)"><g><path d="M 0.21875 -1 C 0.207031 -0.851562 0.101562 -0.742188 -0.09375 -0.671875 C -0.289062 -0.597656 -0.566406 -0.578125 -0.921875 -0.609375 C -1.128906 -0.628906 -1.390625 -0.671875 -1.703125 -0.734375 C -2.015625 -0.804688 -2.363281 -0.882812 -2.75 -0.96875 C -3.132812 -1.050781 -3.539062 -1.128906 -3.96875 -1.203125 C -4.40625 -1.285156 -4.835938 -1.347656 -5.265625 -1.390625 C -5.453125 -1.410156 -5.632812 -1.425781 -5.8125 -1.4375 C -5.988281 -1.445312 -6.160156 -1.453125 -6.328125 -1.453125 C -6.347656 -1.578125 -6.359375 -1.679688 -6.359375 -1.765625 C -6.367188 -1.847656 -6.375 -1.910156 -6.375 -1.953125 C -6.363281 -2.066406 -6.304688 -2.140625 -6.203125 -2.171875 C -6.097656 -2.203125 -5.882812 -2.203125 -5.5625 -2.171875 C -5.332031 -2.148438 -5.078125 -2.109375 -4.796875 -2.046875 C -4.523438 -1.992188 -4.25 -1.929688 -3.96875 -1.859375 C -3.6875 -1.796875 -3.453125 -1.734375 -3.265625 -1.671875 C -3.066406 -1.640625 -2.847656 -1.601562 -2.609375 -1.5625 C -2.367188 -1.53125 -2.128906 -1.492188 -1.890625 -1.453125 C -1.660156 -1.410156 -1.46875 -1.382812 -1.3125 -1.375 C -1.082031 -1.351562 -0.875 -1.34375 -0.6875 -1.34375 C -0.5 -1.351562 -0.347656 -1.378906 -0.234375 -1.421875 C -0.253906 -1.484375 -0.296875 -1.554688 -0.359375 -1.640625 C -0.429688 -1.722656 -0.507812 -1.804688 -0.59375 -1.890625 C -0.675781 -1.972656 -0.757812 -2.035156 -0.84375 -2.078125 C -0.789062 -2.109375 -0.726562 -2.117188 -0.65625 -2.109375 C -0.570312 -2.109375 -0.476562 -2.066406 -0.375 -1.984375 C -0.269531 -1.898438 -0.171875 -1.800781 -0.078125 -1.6875 C 0.015625 -1.570312 0.0859375 -1.453125 0.140625 -1.328125 C 0.203125 -1.210938 0.226562 -1.101562 0.21875 -1 Z M 0.21875 -1 "/></g></g></g><g fill="#000000" fill-opacity="0.4"><g transform="translate(194.39937, 262.243053)"><g><path d="M 0.21875 -0.4375 C 0.132812 -0.40625 0.0625 -0.390625 0 -0.390625 C -0.0625 -0.390625 -0.125 -0.394531 -0.1875 -0.40625 C -0.351562 -0.457031 -0.515625 -0.566406 -0.671875 -0.734375 C -0.828125 -0.910156 -0.976562 -1.117188 -1.125 -1.359375 C -1.28125 -1.609375 -1.429688 -1.867188 -1.578125 -2.140625 C -1.722656 -2.421875 -1.859375 -2.691406 -1.984375 -2.953125 C -2.117188 -3.210938 -2.238281 -3.441406 -2.34375 -3.640625 C -2.457031 -3.835938 -2.554688 -3.988281 -2.640625 -4.09375 C -2.703125 -3.707031 -2.753906 -3.382812 -2.796875 -3.125 C -2.847656 -2.863281 -2.914062 -2.585938 -3 -2.296875 C -3.09375 -2.003906 -3.1875 -1.816406 -3.28125 -1.734375 C -3.375 -1.648438 -3.523438 -1.640625 -3.734375 -1.703125 C -3.671875 -1.816406 -3.613281 -1.9375 -3.5625 -2.0625 C -3.519531 -2.1875 -3.484375 -2.300781 -3.453125 -2.40625 C -3.367188 -2.6875 -3.304688 -2.960938 -3.265625 -3.234375 C -3.222656 -3.515625 -3.164062 -3.78125 -3.09375 -4.03125 C -3.019531 -4.25 -2.945312 -4.390625 -2.875 -4.453125 C -2.8125 -4.523438 -2.703125 -4.539062 -2.546875 -4.5 C -2.335938 -4.4375 -2.148438 -4.300781 -1.984375 -4.09375 C -1.816406 -3.894531 -1.65625 -3.65625 -1.5 -3.375 C -1.351562 -3.09375 -1.207031 -2.800781 -1.0625 -2.5 C -0.925781 -2.195312 -0.773438 -1.910156 -0.609375 -1.640625 C -0.453125 -1.378906 -0.269531 -1.164062 -0.0625 -1 C -0.0507812 -1.175781 -0.03125 -1.367188 0 -1.578125 C 0.03125 -1.796875 0.0625 -2.003906 0.09375 -2.203125 C 0.125 -2.398438 0.160156 -2.554688 0.203125 -2.671875 C 0.273438 -2.910156 0.359375 -3.078125 0.453125 -3.171875 C 0.554688 -3.273438 0.65625 -3.328125 0.75 -3.328125 C 0.851562 -3.335938 0.945312 -3.332031 1.03125 -3.3125 C 0.976562 -3.207031 0.914062 -3.054688 0.84375 -2.859375 C 0.769531 -2.671875 0.691406 -2.4375 0.609375 -2.15625 C 0.546875 -1.96875 0.488281 -1.765625 0.4375 -1.546875 C 0.382812 -1.328125 0.335938 -1.117188 0.296875 -0.921875 C 0.253906 -0.722656 0.226562 -0.5625 0.21875 -0.4375 Z M 0.21875 -0.4375 "/></g></g></g><g fill="#000000" fill-opacity="0.4"><g transform="translate(195.405424, 258.708212)"><g><path d="M 0.9375 -1.328125 C 0.769531 -1.046875 0.578125 -0.859375 0.359375 -0.765625 C 0.140625 -0.679688 -0.0820312 -0.664062 -0.3125 -0.71875 C -0.550781 -0.769531 -0.785156 -0.867188 -1.015625 -1.015625 C -1.460938 -1.273438 -1.816406 -1.585938 -2.078125 -1.953125 C -2.347656 -2.316406 -2.507812 -2.703125 -2.5625 -3.109375 C -2.613281 -3.515625 -2.539062 -3.882812 -2.34375 -4.21875 C -2.175781 -4.488281 -1.976562 -4.660156 -1.75 -4.734375 C -1.53125 -4.816406 -1.296875 -4.832031 -1.046875 -4.78125 C -0.796875 -4.726562 -0.546875 -4.625 -0.296875 -4.46875 C -0.0234375 -4.3125 0.21875 -4.113281 0.4375 -3.875 C 0.664062 -3.632812 0.847656 -3.375 0.984375 -3.09375 C 1.128906 -2.820312 1.203125 -2.535156 1.203125 -2.234375 C 1.203125 -1.929688 1.113281 -1.628906 0.9375 -1.328125 Z M 0.71875 -1.734375 C 0.894531 -2.035156 0.882812 -2.351562 0.6875 -2.6875 C 0.488281 -3.019531 0.113281 -3.351562 -0.4375 -3.6875 C -0.625 -3.789062 -0.820312 -3.882812 -1.03125 -3.96875 C -1.25 -4.050781 -1.457031 -4.082031 -1.65625 -4.0625 C -1.851562 -4.050781 -2.015625 -3.9375 -2.140625 -3.71875 C -2.304688 -3.4375 -2.300781 -3.140625 -2.125 -2.828125 C -1.957031 -2.523438 -1.578125 -2.191406 -0.984375 -1.828125 C -0.753906 -1.691406 -0.53125 -1.578125 -0.3125 -1.484375 C -0.101562 -1.398438 0.0859375 -1.367188 0.265625 -1.390625 C 0.453125 -1.421875 0.601562 -1.535156 0.71875 -1.734375 Z M 0.71875 -1.734375 "/></g></g></g><g fill="#000000" fill-opacity="0.4"><g transform="translate(197.2492, 255.496492)"><g><path d="M 1.390625 -4.640625 C 1.359375 -4.523438 1.328125 -4.359375 1.296875 -4.140625 C 1.265625 -3.929688 1.234375 -3.703125 1.203125 -3.453125 C 1.578125 -3.078125 1.910156 -2.691406 2.203125 -2.296875 C 2.503906 -1.910156 2.738281 -1.53125 2.90625 -1.15625 C 3.070312 -0.789062 3.132812 -0.429688 3.09375 -0.078125 C 3.050781 0.265625 2.863281 0.597656 2.53125 0.921875 C 2.382812 1.066406 2.25 1.148438 2.125 1.171875 C 2 1.191406 1.882812 1.175781 1.78125 1.125 C 1.6875 1.070312 1.601562 1.007812 1.53125 0.9375 C 1.363281 0.757812 1.234375 0.519531 1.140625 0.21875 C 1.046875 -0.0820312 0.972656 -0.421875 0.921875 -0.796875 C 0.890625 -0.710938 0.84375 -0.640625 0.78125 -0.578125 C 0.644531 -0.453125 0.492188 -0.394531 0.328125 -0.40625 C 0.171875 -0.425781 0.015625 -0.488281 -0.140625 -0.59375 C -0.296875 -0.707031 -0.445312 -0.835938 -0.59375 -0.984375 C -0.625 -1.015625 -0.65625 -1.046875 -0.6875 -1.078125 C -0.726562 -1.117188 -0.769531 -1.160156 -0.8125 -1.203125 C -1.15625 -1.617188 -1.394531 -2.046875 -1.53125 -2.484375 C -1.675781 -2.929688 -1.71875 -3.34375 -1.65625 -3.71875 C -1.601562 -4.101562 -1.457031 -4.410156 -1.21875 -4.640625 C -1.15625 -4.710938 -1.085938 -4.765625 -1.015625 -4.796875 C -0.941406 -4.835938 -0.863281 -4.875 -0.78125 -4.90625 C -0.757812 -4.976562 -0.734375 -5.039062 -0.703125 -5.09375 C -0.671875 -5.144531 -0.644531 -5.179688 -0.625 -5.203125 C -0.539062 -5.273438 -0.414062 -5.269531 -0.25 -5.1875 C -0.09375 -5.101562 0.078125 -4.960938 0.265625 -4.765625 C 0.441406 -4.585938 0.582031 -4.414062 0.6875 -4.25 C 0.789062 -4.09375 0.878906 -3.9375 0.953125 -3.78125 C 0.984375 -3.976562 1.015625 -4.148438 1.046875 -4.296875 C 1.078125 -4.453125 1.117188 -4.5625 1.171875 -4.625 C 1.242188 -4.6875 1.316406 -4.691406 1.390625 -4.640625 Z M -0.359375 -1.671875 C 0.0859375 -1.222656 0.414062 -1.101562 0.625 -1.3125 C 0.71875 -1.40625 0.78125 -1.5625 0.8125 -1.78125 C 0.84375 -2 0.84375 -2.253906 0.8125 -2.546875 C 0.789062 -2.835938 0.726562 -3.125 0.625 -3.40625 C 0.570312 -3.488281 0.515625 -3.5625 0.453125 -3.625 C 0.390625 -3.6875 0.332031 -3.75 0.28125 -3.8125 C 0.1875 -3.90625 0.09375 -3.992188 0 -4.078125 C -0.09375 -4.160156 -0.191406 -4.25 -0.296875 -4.34375 C -0.492188 -4.363281 -0.660156 -4.347656 -0.796875 -4.296875 C -0.941406 -4.242188 -1.0625 -4.171875 -1.15625 -4.078125 C -1.382812 -3.859375 -1.46875 -3.601562 -1.40625 -3.3125 C -1.34375 -3.019531 -1.148438 -2.65625 -0.828125 -2.21875 C -0.734375 -2.101562 -0.648438 -2.003906 -0.578125 -1.921875 C -0.503906 -1.835938 -0.429688 -1.753906 -0.359375 -1.671875 Z M 2.546875 0.546875 C 2.671875 0.421875 2.71875 0.234375 2.6875 -0.015625 C 2.65625 -0.273438 2.5625 -0.554688 2.40625 -0.859375 C 2.257812 -1.171875 2.070312 -1.492188 1.84375 -1.828125 C 1.625 -2.160156 1.394531 -2.484375 1.15625 -2.796875 C 1.132812 -2.691406 1.125 -2.59375 1.125 -2.5 C 1.125 -2.414062 1.125 -2.347656 1.125 -2.296875 C 1.125 -2.066406 1.140625 -1.816406 1.171875 -1.546875 C 1.210938 -1.285156 1.269531 -1.023438 1.34375 -0.765625 C 1.425781 -0.503906 1.519531 -0.265625 1.625 -0.046875 C 1.738281 0.160156 1.863281 0.332031 2 0.46875 C 2.0625 0.539062 2.140625 0.597656 2.234375 0.640625 C 2.328125 0.679688 2.429688 0.648438 2.546875 0.546875 Z M 2.546875 0.546875 "/></g></g></g><g fill="#000000" fill-opacity="0.4"><g transform="translate(200.016485, 252.673472)"><g><path d="M 3.3125 -2.953125 C 3.363281 -2.941406 3.40625 -2.898438 3.4375 -2.828125 C 3.5 -2.722656 3.519531 -2.570312 3.5 -2.375 C 3.476562 -2.1875 3.421875 -2.003906 3.328125 -1.828125 C 3.242188 -1.660156 3.128906 -1.539062 2.984375 -1.46875 C 2.847656 -1.394531 2.734375 -1.390625 2.640625 -1.453125 C 2.546875 -1.515625 2.453125 -1.628906 2.359375 -1.796875 C 2.304688 -1.898438 2.234375 -2.039062 2.140625 -2.21875 C 2.054688 -2.40625 1.972656 -2.601562 1.890625 -2.8125 C 1.816406 -3.019531 1.75 -3.210938 1.6875 -3.390625 C 1.625 -3.566406 1.578125 -3.707031 1.546875 -3.8125 C 1.503906 -3.914062 1.460938 -4.015625 1.421875 -4.109375 C 1.378906 -4.210938 1.34375 -4.296875 1.3125 -4.359375 C 1.25 -4.472656 1.179688 -4.550781 1.109375 -4.59375 C 1.046875 -4.644531 0.960938 -4.640625 0.859375 -4.578125 C 0.722656 -4.503906 0.613281 -4.382812 0.53125 -4.21875 C 0.445312 -4.0625 0.382812 -3.878906 0.34375 -3.671875 C 0.300781 -3.460938 0.273438 -3.25 0.265625 -3.03125 C 0.253906 -2.820312 0.273438 -2.625 0.328125 -2.4375 C 0.648438 -1.789062 0.863281 -1.300781 0.96875 -0.96875 C 1.082031 -0.632812 1.03125 -0.410156 0.8125 -0.296875 C 0.78125 -0.273438 0.726562 -0.25 0.65625 -0.21875 C 0.59375 -0.195312 0.535156 -0.1875 0.484375 -0.1875 C 0.304688 -0.6875 0.109375 -1.191406 -0.109375 -1.703125 C -0.328125 -2.222656 -0.550781 -2.722656 -0.78125 -3.203125 C -1.007812 -3.679688 -1.234375 -4.125 -1.453125 -4.53125 C -1.648438 -4.894531 -1.828125 -5.210938 -1.984375 -5.484375 C -2.140625 -5.765625 -2.253906 -5.953125 -2.328125 -6.046875 C -2.203125 -6.203125 -2.085938 -6.304688 -1.984375 -6.359375 C -1.859375 -6.421875 -1.75 -6.410156 -1.65625 -6.328125 C -1.5625 -6.253906 -1.445312 -6.097656 -1.3125 -5.859375 C -1.28125 -5.796875 -1.226562 -5.695312 -1.15625 -5.5625 C -1.09375 -5.4375 -1.019531 -5.289062 -0.9375 -5.125 C -0.863281 -4.957031 -0.789062 -4.789062 -0.71875 -4.625 C -0.644531 -4.46875 -0.59375 -4.328125 -0.5625 -4.203125 C -0.457031 -4.003906 -0.359375 -3.804688 -0.265625 -3.609375 C -0.171875 -3.421875 -0.0625 -3.203125 0.0625 -2.953125 C 0.0390625 -3.253906 0.0625 -3.5625 0.125 -3.875 C 0.195312 -4.1875 0.304688 -4.46875 0.453125 -4.71875 C 0.609375 -4.976562 0.789062 -5.164062 1 -5.28125 C 1.175781 -5.375 1.332031 -5.390625 1.46875 -5.328125 C 1.613281 -5.273438 1.75 -5.128906 1.875 -4.890625 C 1.9375 -4.773438 1.992188 -4.644531 2.046875 -4.5 C 2.109375 -4.363281 2.171875 -4.203125 2.234375 -4.015625 C 2.242188 -3.941406 2.273438 -3.832031 2.328125 -3.6875 C 2.378906 -3.539062 2.4375 -3.378906 2.5 -3.203125 C 2.5625 -3.035156 2.617188 -2.875 2.671875 -2.71875 C 2.734375 -2.5625 2.789062 -2.4375 2.84375 -2.34375 C 2.882812 -2.269531 2.925781 -2.207031 2.96875 -2.15625 C 3.019531 -2.113281 3.0625 -2.09375 3.09375 -2.09375 C 3.15625 -2.207031 3.207031 -2.347656 3.25 -2.515625 C 3.289062 -2.679688 3.3125 -2.828125 3.3125 -2.953125 Z M 3.3125 -2.953125 "/></g></g></g><g fill="#000000" fill-opacity="0.4"><g transform="translate(203.870017, 250.577432)"><g><path d="M 2.125 -4.75 C 2.332031 -4.789062 2.5 -4.765625 2.625 -4.671875 C 2.757812 -4.578125 2.863281 -4.4375 2.9375 -4.25 C 3.019531 -4.070312 3.082031 -3.890625 3.125 -3.703125 C 3.132812 -3.648438 3.144531 -3.597656 3.15625 -3.546875 C 3.175781 -3.492188 3.191406 -3.441406 3.203125 -3.390625 C 3.265625 -2.847656 3.238281 -2.351562 3.125 -1.90625 C 3.007812 -1.457031 2.832031 -1.085938 2.59375 -0.796875 C 2.351562 -0.503906 2.066406 -0.320312 1.734375 -0.25 C 1.535156 -0.207031 1.335938 -0.210938 1.140625 -0.265625 C 1.097656 -0.203125 1.050781 -0.15625 1 -0.125 C 0.945312 -0.09375 0.898438 -0.0703125 0.859375 -0.0625 C 0.742188 -0.03125 0.640625 -0.0976562 0.546875 -0.265625 C 0.453125 -0.441406 0.375 -0.671875 0.3125 -0.953125 C 0.238281 -1.296875 0.1875 -1.648438 0.15625 -2.015625 C 0.132812 -2.378906 0.09375 -2.796875 0.03125 -3.265625 C -0.0195312 -3.734375 -0.113281 -4.28125 -0.25 -4.90625 C -0.320312 -5.238281 -0.394531 -5.546875 -0.46875 -5.828125 C -0.539062 -6.109375 -0.609375 -6.304688 -0.671875 -6.421875 C -0.484375 -6.535156 -0.332031 -6.609375 -0.21875 -6.640625 C -0.0820312 -6.671875 0.0078125 -6.640625 0.0625 -6.546875 C 0.125 -6.453125 0.179688 -6.28125 0.234375 -6.03125 C 0.296875 -5.75 0.359375 -5.394531 0.421875 -4.96875 C 0.492188 -4.550781 0.539062 -4.097656 0.5625 -3.609375 C 0.570312 -3.566406 0.585938 -3.421875 0.609375 -3.171875 C 0.640625 -2.921875 0.679688 -2.640625 0.734375 -2.328125 C 0.765625 -2.691406 0.84375 -3.050781 0.96875 -3.40625 C 1.101562 -3.769531 1.269531 -4.070312 1.46875 -4.3125 C 1.664062 -4.550781 1.882812 -4.695312 2.125 -4.75 Z M 2.6875 -2.546875 C 2.65625 -2.828125 2.617188 -3.066406 2.578125 -3.265625 C 2.441406 -3.859375 2.234375 -4.117188 1.953125 -4.046875 C 1.816406 -4.023438 1.675781 -3.929688 1.53125 -3.765625 C 1.394531 -3.609375 1.269531 -3.40625 1.15625 -3.15625 C 1.039062 -2.90625 0.957031 -2.617188 0.90625 -2.296875 C 0.863281 -1.984375 0.867188 -1.644531 0.921875 -1.28125 C 0.929688 -1.238281 0.941406 -1.203125 0.953125 -1.171875 C 0.972656 -1.140625 0.988281 -1.109375 1 -1.078125 C 1.125 -0.910156 1.242188 -0.800781 1.359375 -0.75 C 1.484375 -0.707031 1.625 -0.703125 1.78125 -0.734375 C 2.09375 -0.804688 2.332031 -0.984375 2.5 -1.265625 C 2.664062 -1.554688 2.726562 -1.984375 2.6875 -2.546875 Z M 2.6875 -2.546875 "/></g></g></g><g fill="#000000" fill-opacity="0.4"><g transform="translate(207.667605, 249.728584)"><g><path d="M 2 -0.421875 C 2.175781 -0.410156 2.363281 -0.425781 2.5625 -0.46875 C 2.769531 -0.519531 2.953125 -0.625 3.109375 -0.78125 C 3.117188 -0.726562 3.125 -0.6875 3.125 -0.65625 C 3.125 -0.53125 3.070312 -0.410156 2.96875 -0.296875 C 2.863281 -0.191406 2.734375 -0.101562 2.578125 -0.03125 C 2.429688 0.03125 2.269531 0.078125 2.09375 0.109375 C 1.925781 0.148438 1.765625 0.171875 1.609375 0.171875 C 1.378906 0.160156 1.164062 0.101562 0.96875 0 C 0.78125 -0.113281 0.628906 -0.289062 0.515625 -0.53125 C 0.410156 -0.769531 0.363281 -1.085938 0.375 -1.484375 C 0.382812 -1.835938 0.441406 -2.175781 0.546875 -2.5 C 0.660156 -2.820312 0.816406 -3.101562 1.015625 -3.34375 C 1.210938 -3.59375 1.4375 -3.785156 1.6875 -3.921875 C 1.945312 -4.054688 2.226562 -4.117188 2.53125 -4.109375 C 2.820312 -4.097656 3.046875 -4.019531 3.203125 -3.875 C 3.367188 -3.738281 3.445312 -3.535156 3.4375 -3.265625 C 3.4375 -2.992188 3.351562 -2.75 3.1875 -2.53125 C 3.019531 -2.3125 2.789062 -2.144531 2.5 -2.03125 C 2.207031 -1.914062 1.875 -1.863281 1.5 -1.875 C 1.34375 -1.875 1.195312 -1.878906 1.0625 -1.890625 C 1.0625 -1.503906 1.097656 -1.207031 1.171875 -1 C 1.242188 -0.789062 1.347656 -0.640625 1.484375 -0.546875 C 1.628906 -0.460938 1.800781 -0.421875 2 -0.421875 Z M 2.25 -3.6875 C 1.988281 -3.695312 1.738281 -3.585938 1.5 -3.359375 C 1.269531 -3.140625 1.128906 -2.796875 1.078125 -2.328125 C 1.316406 -2.242188 1.578125 -2.195312 1.859375 -2.1875 C 2.492188 -2.175781 2.816406 -2.460938 2.828125 -3.046875 C 2.828125 -3.117188 2.816406 -3.203125 2.796875 -3.296875 C 2.773438 -3.398438 2.722656 -3.488281 2.640625 -3.5625 C 2.554688 -3.644531 2.425781 -3.6875 2.25 -3.6875 Z M 2.25 -3.6875 "/></g></g></g><g fill="#000000" fill-opacity="1"><g transform="translate(194.111577, 268.296811)"><g><path d="M -5.859375 -2.3125 C -5.828125 -1.988281 -5.765625 -1.734375 -5.671875 -1.546875 C -5.585938 -1.359375 -5.488281 -1.210938 -5.375 -1.109375 C -5.195312 -1.117188 -4.984375 -1.117188 -4.734375 -1.109375 C -4.484375 -1.109375 -4.226562 -1.109375 -3.96875 -1.109375 C -3.71875 -1.109375 -3.503906 -1.109375 -3.328125 -1.109375 C -3.421875 -1.285156 -3.503906 -1.492188 -3.578125 -1.734375 C -3.660156 -1.984375 -3.710938 -2.210938 -3.734375 -2.421875 C -3.753906 -2.628906 -3.738281 -2.8125 -3.6875 -2.96875 C -3.644531 -3.132812 -3.546875 -3.222656 -3.390625 -3.234375 C -3.367188 -3.242188 -3.347656 -3.242188 -3.328125 -3.234375 C -3.304688 -3.234375 -3.28125 -3.234375 -3.25 -3.234375 C -3.269531 -3.078125 -3.28125 -2.921875 -3.28125 -2.765625 C -3.28125 -2.609375 -3.269531 -2.453125 -3.25 -2.296875 C -3.226562 -2.097656 -3.195312 -1.898438 -3.15625 -1.703125 C -3.113281 -1.503906 -3.0625 -1.304688 -3 -1.109375 C -2.550781 -1.140625 -2.179688 -1.164062 -1.890625 -1.1875 C -1.609375 -1.207031 -1.359375 -1.222656 -1.140625 -1.234375 C -0.929688 -1.242188 -0.722656 -1.253906 -0.515625 -1.265625 C -0.523438 -1.316406 -0.53125 -1.378906 -0.53125 -1.453125 C -0.539062 -1.535156 -0.550781 -1.617188 -0.5625 -1.703125 C -0.613281 -2.148438 -0.671875 -2.503906 -0.734375 -2.765625 C -0.796875 -3.035156 -0.859375 -3.238281 -0.921875 -3.375 C -0.984375 -3.507812 -1.039062 -3.601562 -1.09375 -3.65625 C -1.039062 -3.726562 -0.988281 -3.773438 -0.9375 -3.796875 C -0.882812 -3.816406 -0.835938 -3.828125 -0.796875 -3.828125 C -0.671875 -3.847656 -0.566406 -3.804688 -0.484375 -3.703125 C -0.398438 -3.597656 -0.335938 -3.453125 -0.296875 -3.265625 C -0.253906 -3.085938 -0.222656 -2.890625 -0.203125 -2.671875 C -0.179688 -2.453125 -0.160156 -2.179688 -0.140625 -1.859375 C -0.117188 -1.535156 -0.0976562 -1.21875 -0.078125 -0.90625 C -0.0546875 -0.601562 -0.0351562 -0.335938 -0.015625 -0.109375 C -0.171875 -0.0859375 -0.296875 -0.265625 -0.390625 -0.640625 C -0.859375 -0.585938 -1.332031 -0.550781 -1.8125 -0.53125 C -2.289062 -0.507812 -2.789062 -0.515625 -3.3125 -0.546875 C -3.726562 -0.535156 -4.113281 -0.515625 -4.46875 -0.484375 C -4.832031 -0.460938 -5.160156 -0.4375 -5.453125 -0.40625 C -5.554688 -0.394531 -5.65625 -0.382812 -5.75 -0.375 C -5.851562 -0.363281 -5.945312 -0.347656 -6.03125 -0.328125 C -6.09375 -0.515625 -6.128906 -0.65625 -6.140625 -0.75 C -6.148438 -0.84375 -6.117188 -0.921875 -6.046875 -0.984375 C -5.972656 -1.054688 -5.859375 -1.097656 -5.703125 -1.109375 L -5.671875 -1.109375 C -5.828125 -1.253906 -5.957031 -1.414062 -6.0625 -1.59375 C -6.164062 -1.78125 -6.242188 -1.972656 -6.296875 -2.171875 C -6.347656 -2.367188 -6.382812 -2.546875 -6.40625 -2.703125 C -6.425781 -2.898438 -6.421875 -3.070312 -6.390625 -3.21875 C -6.367188 -3.363281 -6.289062 -3.445312 -6.15625 -3.46875 C -6.070312 -3.476562 -5.957031 -3.445312 -5.8125 -3.375 C -5.863281 -3.226562 -5.890625 -3.0625 -5.890625 -2.875 C -5.890625 -2.6875 -5.878906 -2.5 -5.859375 -2.3125 Z M -5.859375 -2.3125 "/></g></g></g><g fill="#000000" fill-opacity="1"><g transform="translate(193.754472, 264.245274)"><g><path d="M 0.21875 -1 C 0.207031 -0.851562 0.101562 -0.742188 -0.09375 -0.671875 C -0.289062 -0.597656 -0.566406 -0.578125 -0.921875 -0.609375 C -1.128906 -0.628906 -1.390625 -0.671875 -1.703125 -0.734375 C -2.015625 -0.804688 -2.363281 -0.882812 -2.75 -0.96875 C -3.132812 -1.050781 -3.539062 -1.128906 -3.96875 -1.203125 C -4.40625 -1.285156 -4.835938 -1.347656 -5.265625 -1.390625 C -5.453125 -1.410156 -5.632812 -1.425781 -5.8125 -1.4375 C -5.988281 -1.445312 -6.160156 -1.453125 -6.328125 -1.453125 C -6.347656 -1.578125 -6.359375 -1.679688 -6.359375 -1.765625 C -6.367188 -1.847656 -6.375 -1.910156 -6.375 -1.953125 C -6.363281 -2.066406 -6.304688 -2.140625 -6.203125 -2.171875 C -6.097656 -2.203125 -5.882812 -2.203125 -5.5625 -2.171875 C -5.332031 -2.148438 -5.078125 -2.109375 -4.796875 -2.046875 C -4.523438 -1.992188 -4.25 -1.929688 -3.96875 -1.859375 C -3.6875 -1.796875 -3.453125 -1.734375 -3.265625 -1.671875 C -3.066406 -1.640625 -2.847656 -1.601562 -2.609375 -1.5625 C -2.367188 -1.53125 -2.128906 -1.492188 -1.890625 -1.453125 C -1.660156 -1.410156 -1.46875 -1.382812 -1.3125 -1.375 C -1.082031 -1.351562 -0.875 -1.34375 -0.6875 -1.34375 C -0.5 -1.351562 -0.347656 -1.378906 -0.234375 -1.421875 C -0.253906 -1.484375 -0.296875 -1.554688 -0.359375 -1.640625 C -0.429688 -1.722656 -0.507812 -1.804688 -0.59375 -1.890625 C -0.675781 -1.972656 -0.757812 -2.035156 -0.84375 -2.078125 C -0.789062 -2.109375 -0.726562 -2.117188 -0.65625 -2.109375 C -0.570312 -2.109375 -0.476562 -2.066406 -0.375 -1.984375 C -0.269531 -1.898438 -0.171875 -1.800781 -0.078125 -1.6875 C 0.015625 -1.570312 0.0859375 -1.453125 0.140625 -1.328125 C 0.203125 -1.210938 0.226562 -1.101562 0.21875 -1 Z M 0.21875 -1 "/></g></g></g><g fill="#000000" fill-opacity="1"><g transform="translate(193.837619, 262.271968)"><g><path d="M 0.21875 -0.4375 C 0.132812 -0.40625 0.0625 -0.390625 0 -0.390625 C -0.0625 -0.390625 -0.125 -0.394531 -0.1875 -0.40625 C -0.351562 -0.457031 -0.515625 -0.566406 -0.671875 -0.734375 C -0.828125 -0.910156 -0.976562 -1.117188 -1.125 -1.359375 C -1.28125 -1.609375 -1.429688 -1.867188 -1.578125 -2.140625 C -1.722656 -2.421875 -1.859375 -2.691406 -1.984375 -2.953125 C -2.117188 -3.210938 -2.238281 -3.441406 -2.34375 -3.640625 C -2.457031 -3.835938 -2.554688 -3.988281 -2.640625 -4.09375 C -2.703125 -3.707031 -2.753906 -3.382812 -2.796875 -3.125 C -2.847656 -2.863281 -2.914062 -2.585938 -3 -2.296875 C -3.09375 -2.003906 -3.1875 -1.816406 -3.28125 -1.734375 C -3.375 -1.648438 -3.523438 -1.640625 -3.734375 -1.703125 C -3.671875 -1.816406 -3.613281 -1.9375 -3.5625 -2.0625 C -3.519531 -2.1875 -3.484375 -2.300781 -3.453125 -2.40625 C -3.367188 -2.6875 -3.304688 -2.960938 -3.265625 -3.234375 C -3.222656 -3.515625 -3.164062 -3.78125 -3.09375 -4.03125 C -3.019531 -4.25 -2.945312 -4.390625 -2.875 -4.453125 C -2.8125 -4.523438 -2.703125 -4.539062 -2.546875 -4.5 C -2.335938 -4.4375 -2.148438 -4.300781 -1.984375 -4.09375 C -1.816406 -3.894531 -1.65625 -3.65625 -1.5 -3.375 C -1.351562 -3.09375 -1.207031 -2.800781 -1.0625 -2.5 C -0.925781 -2.195312 -0.773438 -1.910156 -0.609375 -1.640625 C -0.453125 -1.378906 -0.269531 -1.164062 -0.0625 -1 C -0.0507812 -1.175781 -0.03125 -1.367188 0 -1.578125 C 0.03125 -1.796875 0.0625 -2.003906 0.09375 -2.203125 C 0.125 -2.398438 0.160156 -2.554688 0.203125 -2.671875 C 0.273438 -2.910156 0.359375 -3.078125 0.453125 -3.171875 C 0.554688 -3.273438 0.65625 -3.328125 0.75 -3.328125 C 0.851562 -3.335938 0.945312 -3.332031 1.03125 -3.3125 C 0.976562 -3.207031 0.914062 -3.054688 0.84375 -2.859375 C 0.769531 -2.671875 0.691406 -2.4375 0.609375 -2.15625 C 0.546875 -1.96875 0.488281 -1.765625 0.4375 -1.546875 C 0.382812 -1.328125 0.335938 -1.117188 0.296875 -0.921875 C 0.253906 -0.722656 0.226562 -0.5625 0.21875 -0.4375 Z M 0.21875 -0.4375 "/></g></g></g><g fill="#000000" fill-opacity="1"><g transform="translate(194.843671, 258.737158)"><g><path d="M 0.9375 -1.328125 C 0.769531 -1.046875 0.578125 -0.859375 0.359375 -0.765625 C 0.140625 -0.679688 -0.0820312 -0.664062 -0.3125 -0.71875 C -0.550781 -0.769531 -0.785156 -0.867188 -1.015625 -1.015625 C -1.460938 -1.273438 -1.816406 -1.585938 -2.078125 -1.953125 C -2.347656 -2.316406 -2.507812 -2.703125 -2.5625 -3.109375 C -2.613281 -3.515625 -2.539062 -3.882812 -2.34375 -4.21875 C -2.175781 -4.488281 -1.976562 -4.660156 -1.75 -4.734375 C -1.53125 -4.816406 -1.296875 -4.832031 -1.046875 -4.78125 C -0.796875 -4.726562 -0.546875 -4.625 -0.296875 -4.46875 C -0.0234375 -4.3125 0.21875 -4.113281 0.4375 -3.875 C 0.664062 -3.632812 0.847656 -3.375 0.984375 -3.09375 C 1.128906 -2.820312 1.203125 -2.535156 1.203125 -2.234375 C 1.203125 -1.929688 1.113281 -1.628906 0.9375 -1.328125 Z M 0.71875 -1.734375 C 0.894531 -2.035156 0.882812 -2.351562 0.6875 -2.6875 C 0.488281 -3.019531 0.113281 -3.351562 -0.4375 -3.6875 C -0.625 -3.789062 -0.820312 -3.882812 -1.03125 -3.96875 C -1.25 -4.050781 -1.457031 -4.082031 -1.65625 -4.0625 C -1.851562 -4.050781 -2.015625 -3.9375 -2.140625 -3.71875 C -2.304688 -3.4375 -2.300781 -3.140625 -2.125 -2.828125 C -1.957031 -2.523438 -1.578125 -2.191406 -0.984375 -1.828125 C -0.753906 -1.691406 -0.53125 -1.578125 -0.3125 -1.484375 C -0.101562 -1.398438 0.0859375 -1.367188 0.265625 -1.390625 C 0.453125 -1.421875 0.601562 -1.535156 0.71875 -1.734375 Z M 0.71875 -1.734375 "/></g></g></g><g fill="#000000" fill-opacity="1"><g transform="translate(196.687449, 255.525407)"><g><path d="M 1.390625 -4.640625 C 1.359375 -4.523438 1.328125 -4.359375 1.296875 -4.140625 C 1.265625 -3.929688 1.234375 -3.703125 1.203125 -3.453125 C 1.578125 -3.078125 1.910156 -2.691406 2.203125 -2.296875 C 2.503906 -1.910156 2.738281 -1.53125 2.90625 -1.15625 C 3.070312 -0.789062 3.132812 -0.429688 3.09375 -0.078125 C 3.050781 0.265625 2.863281 0.597656 2.53125 0.921875 C 2.382812 1.066406 2.25 1.148438 2.125 1.171875 C 2 1.191406 1.882812 1.175781 1.78125 1.125 C 1.6875 1.070312 1.601562 1.007812 1.53125 0.9375 C 1.363281 0.757812 1.234375 0.519531 1.140625 0.21875 C 1.046875 -0.0820312 0.972656 -0.421875 0.921875 -0.796875 C 0.890625 -0.710938 0.84375 -0.640625 0.78125 -0.578125 C 0.644531 -0.453125 0.492188 -0.394531 0.328125 -0.40625 C 0.171875 -0.425781 0.015625 -0.488281 -0.140625 -0.59375 C -0.296875 -0.707031 -0.445312 -0.835938 -0.59375 -0.984375 C -0.625 -1.015625 -0.65625 -1.046875 -0.6875 -1.078125 C -0.726562 -1.117188 -0.769531 -1.160156 -0.8125 -1.203125 C -1.15625 -1.617188 -1.394531 -2.046875 -1.53125 -2.484375 C -1.675781 -2.929688 -1.71875 -3.34375 -1.65625 -3.71875 C -1.601562 -4.101562 -1.457031 -4.410156 -1.21875 -4.640625 C -1.15625 -4.710938 -1.085938 -4.765625 -1.015625 -4.796875 C -0.941406 -4.835938 -0.863281 -4.875 -0.78125 -4.90625 C -0.757812 -4.976562 -0.734375 -5.039062 -0.703125 -5.09375 C -0.671875 -5.144531 -0.644531 -5.179688 -0.625 -5.203125 C -0.539062 -5.273438 -0.414062 -5.269531 -0.25 -5.1875 C -0.09375 -5.101562 0.078125 -4.960938 0.265625 -4.765625 C 0.441406 -4.585938 0.582031 -4.414062 0.6875 -4.25 C 0.789062 -4.09375 0.878906 -3.9375 0.953125 -3.78125 C 0.984375 -3.976562 1.015625 -4.148438 1.046875 -4.296875 C 1.078125 -4.453125 1.117188 -4.5625 1.171875 -4.625 C 1.242188 -4.6875 1.316406 -4.691406 1.390625 -4.640625 Z M -0.359375 -1.671875 C 0.0859375 -1.222656 0.414062 -1.101562 0.625 -1.3125 C 0.71875 -1.40625 0.78125 -1.5625 0.8125 -1.78125 C 0.84375 -2 0.84375 -2.253906 0.8125 -2.546875 C 0.789062 -2.835938 0.726562 -3.125 0.625 -3.40625 C 0.570312 -3.488281 0.515625 -3.5625 0.453125 -3.625 C 0.390625 -3.6875 0.332031 -3.75 0.28125 -3.8125 C 0.1875 -3.90625 0.09375 -3.992188 0 -4.078125 C -0.09375 -4.160156 -0.191406 -4.25 -0.296875 -4.34375 C -0.492188 -4.363281 -0.660156 -4.347656 -0.796875 -4.296875 C -0.941406 -4.242188 -1.0625 -4.171875 -1.15625 -4.078125 C -1.382812 -3.859375 -1.46875 -3.601562 -1.40625 -3.3125 C -1.34375 -3.019531 -1.148438 -2.65625 -0.828125 -2.21875 C -0.734375 -2.101562 -0.648438 -2.003906 -0.578125 -1.921875 C -0.503906 -1.835938 -0.429688 -1.753906 -0.359375 -1.671875 Z M 2.546875 0.546875 C 2.671875 0.421875 2.71875 0.234375 2.6875 -0.015625 C 2.65625 -0.273438 2.5625 -0.554688 2.40625 -0.859375 C 2.257812 -1.171875 2.070312 -1.492188 1.84375 -1.828125 C 1.625 -2.160156 1.394531 -2.484375 1.15625 -2.796875 C 1.132812 -2.691406 1.125 -2.59375 1.125 -2.5 C 1.125 -2.414062 1.125 -2.347656 1.125 -2.296875 C 1.125 -2.066406 1.140625 -1.816406 1.171875 -1.546875 C 1.210938 -1.285156 1.269531 -1.023438 1.34375 -0.765625 C 1.425781 -0.503906 1.519531 -0.265625 1.625 -0.046875 C 1.738281 0.160156 1.863281 0.332031 2 0.46875 C 2.0625 0.539062 2.140625 0.597656 2.234375 0.640625 C 2.328125 0.679688 2.429688 0.648438 2.546875 0.546875 Z M 2.546875 0.546875 "/></g></g></g><g fill="#000000" fill-opacity="1"><g transform="translate(199.454717, 252.702416)"><g><path d="M 3.3125 -2.953125 C 3.363281 -2.941406 3.40625 -2.898438 3.4375 -2.828125 C 3.5 -2.722656 3.519531 -2.570312 3.5 -2.375 C 3.476562 -2.1875 3.421875 -2.003906 3.328125 -1.828125 C 3.242188 -1.660156 3.128906 -1.539062 2.984375 -1.46875 C 2.847656 -1.394531 2.734375 -1.390625 2.640625 -1.453125 C 2.546875 -1.515625 2.453125 -1.628906 2.359375 -1.796875 C 2.304688 -1.898438 2.234375 -2.039062 2.140625 -2.21875 C 2.054688 -2.40625 1.972656 -2.601562 1.890625 -2.8125 C 1.816406 -3.019531 1.75 -3.210938 1.6875 -3.390625 C 1.625 -3.566406 1.578125 -3.707031 1.546875 -3.8125 C 1.503906 -3.914062 1.460938 -4.015625 1.421875 -4.109375 C 1.378906 -4.210938 1.34375 -4.296875 1.3125 -4.359375 C 1.25 -4.472656 1.179688 -4.550781 1.109375 -4.59375 C 1.046875 -4.644531 0.960938 -4.640625 0.859375 -4.578125 C 0.722656 -4.503906 0.613281 -4.382812 0.53125 -4.21875 C 0.445312 -4.0625 0.382812 -3.878906 0.34375 -3.671875 C 0.300781 -3.460938 0.273438 -3.25 0.265625 -3.03125 C 0.253906 -2.820312 0.273438 -2.625 0.328125 -2.4375 C 0.648438 -1.789062 0.863281 -1.300781 0.96875 -0.96875 C 1.082031 -0.632812 1.03125 -0.410156 0.8125 -0.296875 C 0.78125 -0.273438 0.726562 -0.25 0.65625 -0.21875 C 0.59375 -0.195312 0.535156 -0.1875 0.484375 -0.1875 C 0.304688 -0.6875 0.109375 -1.191406 -0.109375 -1.703125 C -0.328125 -2.222656 -0.550781 -2.722656 -0.78125 -3.203125 C -1.007812 -3.679688 -1.234375 -4.125 -1.453125 -4.53125 C -1.648438 -4.894531 -1.828125 -5.210938 -1.984375 -5.484375 C -2.140625 -5.765625 -2.253906 -5.953125 -2.328125 -6.046875 C -2.203125 -6.203125 -2.085938 -6.304688 -1.984375 -6.359375 C -1.859375 -6.421875 -1.75 -6.410156 -1.65625 -6.328125 C -1.5625 -6.253906 -1.445312 -6.097656 -1.3125 -5.859375 C -1.28125 -5.796875 -1.226562 -5.695312 -1.15625 -5.5625 C -1.09375 -5.4375 -1.019531 -5.289062 -0.9375 -5.125 C -0.863281 -4.957031 -0.789062 -4.789062 -0.71875 -4.625 C -0.644531 -4.46875 -0.59375 -4.328125 -0.5625 -4.203125 C -0.457031 -4.003906 -0.359375 -3.804688 -0.265625 -3.609375 C -0.171875 -3.421875 -0.0625 -3.203125 0.0625 -2.953125 C 0.0390625 -3.253906 0.0625 -3.5625 0.125 -3.875 C 0.195312 -4.1875 0.304688 -4.46875 0.453125 -4.71875 C 0.609375 -4.976562 0.789062 -5.164062 1 -5.28125 C 1.175781 -5.375 1.332031 -5.390625 1.46875 -5.328125 C 1.613281 -5.273438 1.75 -5.128906 1.875 -4.890625 C 1.9375 -4.773438 1.992188 -4.644531 2.046875 -4.5 C 2.109375 -4.363281 2.171875 -4.203125 2.234375 -4.015625 C 2.242188 -3.941406 2.273438 -3.832031 2.328125 -3.6875 C 2.378906 -3.539062 2.4375 -3.378906 2.5 -3.203125 C 2.5625 -3.035156 2.617188 -2.875 2.671875 -2.71875 C 2.734375 -2.5625 2.789062 -2.4375 2.84375 -2.34375 C 2.882812 -2.269531 2.925781 -2.207031 2.96875 -2.15625 C 3.019531 -2.113281 3.0625 -2.09375 3.09375 -2.09375 C 3.15625 -2.207031 3.207031 -2.347656 3.25 -2.515625 C 3.289062 -2.679688 3.3125 -2.828125 3.3125 -2.953125 Z M 3.3125 -2.953125 "/></g></g></g><g fill="#000000" fill-opacity="1"><g transform="translate(203.308249, 250.606336)"><g><path d="M 2.125 -4.75 C 2.332031 -4.789062 2.5 -4.765625 2.625 -4.671875 C 2.757812 -4.578125 2.863281 -4.4375 2.9375 -4.25 C 3.019531 -4.070312 3.082031 -3.890625 3.125 -3.703125 C 3.132812 -3.648438 3.144531 -3.597656 3.15625 -3.546875 C 3.175781 -3.492188 3.191406 -3.441406 3.203125 -3.390625 C 3.265625 -2.847656 3.238281 -2.351562 3.125 -1.90625 C 3.007812 -1.457031 2.832031 -1.085938 2.59375 -0.796875 C 2.351562 -0.503906 2.066406 -0.320312 1.734375 -0.25 C 1.535156 -0.207031 1.335938 -0.210938 1.140625 -0.265625 C 1.097656 -0.203125 1.050781 -0.15625 1 -0.125 C 0.945312 -0.09375 0.898438 -0.0703125 0.859375 -0.0625 C 0.742188 -0.03125 0.640625 -0.0976562 0.546875 -0.265625 C 0.453125 -0.441406 0.375 -0.671875 0.3125 -0.953125 C 0.238281 -1.296875 0.1875 -1.648438 0.15625 -2.015625 C 0.132812 -2.378906 0.09375 -2.796875 0.03125 -3.265625 C -0.0195312 -3.734375 -0.113281 -4.28125 -0.25 -4.90625 C -0.320312 -5.238281 -0.394531 -5.546875 -0.46875 -5.828125 C -0.539062 -6.109375 -0.609375 -6.304688 -0.671875 -6.421875 C -0.484375 -6.535156 -0.332031 -6.609375 -0.21875 -6.640625 C -0.0820312 -6.671875 0.0078125 -6.640625 0.0625 -6.546875 C 0.125 -6.453125 0.179688 -6.28125 0.234375 -6.03125 C 0.296875 -5.75 0.359375 -5.394531 0.421875 -4.96875 C 0.492188 -4.550781 0.539062 -4.097656 0.5625 -3.609375 C 0.570312 -3.566406 0.585938 -3.421875 0.609375 -3.171875 C 0.640625 -2.921875 0.679688 -2.640625 0.734375 -2.328125 C 0.765625 -2.691406 0.84375 -3.050781 0.96875 -3.40625 C 1.101562 -3.769531 1.269531 -4.070312 1.46875 -4.3125 C 1.664062 -4.550781 1.882812 -4.695312 2.125 -4.75 Z M 2.6875 -2.546875 C 2.65625 -2.828125 2.617188 -3.066406 2.578125 -3.265625 C 2.441406 -3.859375 2.234375 -4.117188 1.953125 -4.046875 C 1.816406 -4.023438 1.675781 -3.929688 1.53125 -3.765625 C 1.394531 -3.609375 1.269531 -3.40625 1.15625 -3.15625 C 1.039062 -2.90625 0.957031 -2.617188 0.90625 -2.296875 C 0.863281 -1.984375 0.867188 -1.644531 0.921875 -1.28125 C 0.929688 -1.238281 0.941406 -1.203125 0.953125 -1.171875 C 0.972656 -1.140625 0.988281 -1.109375 1 -1.078125 C 1.125 -0.910156 1.242188 -0.800781 1.359375 -0.75 C 1.484375 -0.707031 1.625 -0.703125 1.78125 -0.734375 C 2.09375 -0.804688 2.332031 -0.984375 2.5 -1.265625 C 2.664062 -1.554688 2.726562 -1.984375 2.6875 -2.546875 Z M 2.6875 -2.546875 "/></g></g></g><g fill="#000000" fill-opacity="1"><g transform="translate(207.105837, 249.757516)"><g><path d="M 2 -0.421875 C 2.175781 -0.410156 2.363281 -0.425781 2.5625 -0.46875 C 2.769531 -0.519531 2.953125 -0.625 3.109375 -0.78125 C 3.117188 -0.726562 3.125 -0.6875 3.125 -0.65625 C 3.125 -0.53125 3.070312 -0.410156 2.96875 -0.296875 C 2.863281 -0.191406 2.734375 -0.101562 2.578125 -0.03125 C 2.429688 0.03125 2.269531 0.078125 2.09375 0.109375 C 1.925781 0.148438 1.765625 0.171875 1.609375 0.171875 C 1.378906 0.160156 1.164062 0.101562 0.96875 0 C 0.78125 -0.113281 0.628906 -0.289062 0.515625 -0.53125 C 0.410156 -0.769531 0.363281 -1.085938 0.375 -1.484375 C 0.382812 -1.835938 0.441406 -2.175781 0.546875 -2.5 C 0.660156 -2.820312 0.816406 -3.101562 1.015625 -3.34375 C 1.210938 -3.59375 1.4375 -3.785156 1.6875 -3.921875 C 1.945312 -4.054688 2.226562 -4.117188 2.53125 -4.109375 C 2.820312 -4.097656 3.046875 -4.019531 3.203125 -3.875 C 3.367188 -3.738281 3.445312 -3.535156 3.4375 -3.265625 C 3.4375 -2.992188 3.351562 -2.75 3.1875 -2.53125 C 3.019531 -2.3125 2.789062 -2.144531 2.5 -2.03125 C 2.207031 -1.914062 1.875 -1.863281 1.5 -1.875 C 1.34375 -1.875 1.195312 -1.878906 1.0625 -1.890625 C 1.0625 -1.503906 1.097656 -1.207031 1.171875 -1 C 1.242188 -0.789062 1.347656 -0.640625 1.484375 -0.546875 C 1.628906 -0.460938 1.800781 -0.421875 2 -0.421875 Z M 2.25 -3.6875 C 1.988281 -3.695312 1.738281 -3.585938 1.5 -3.359375 C 1.269531 -3.140625 1.128906 -2.796875 1.078125 -2.328125 C 1.316406 -2.242188 1.578125 -2.195312 1.859375 -2.1875 C 2.492188 -2.175781 2.816406 -2.460938 2.828125 -3.046875 C 2.828125 -3.117188 2.816406 -3.203125 2.796875 -3.296875 C 2.773438 -3.398438 2.722656 -3.488281 2.640625 -3.5625 C 2.554688 -3.644531 2.425781 -3.6875 2.25 -3.6875 Z M 2.25 -3.6875 "/></g></g></g></svg>